<?xml version="1.0" standalone="no"?>
<!DOCTYPE svg PUBLIC "-//W3C//DTD SVG 20010904//EN"
 "http://www.w3.org/TR/2001/REC-SVG-20010904/DTD/svg10.dtd">
<svg version="1.0" xmlns="http://www.w3.org/2000/svg"
 width="512.000000pt" height="512.000000pt" viewBox="0 0 512.000000 512.000000"
 preserveAspectRatio="xMidYMid meet">
<metadata>
Created by potrace 1.11, written by Peter Selinger 2001-2013
</metadata>
<g transform="translate(0.000000,512.000000) scale(0.100000,-0.100000)"
fill="#000000" stroke="none">
<path d="M15 4881 c-3 -5 -2 -12 3 -15 5 -3 9 1 9 9 0 17 -3 19 -12 6z"/>
<path d="M45 4860 c-3 -6 1 -7 9 -4 18 7 21 14 7 14 -6 0 -13 -4 -16 -10z"/>
<path d="M106 4862 c-2 -4 4 -8 14 -8 10 0 16 4 14 8 -3 4 -9 8 -14 8 -5 0
-11 -4 -14 -8z"/>
<path d="M196 4862 c-2 -4 5 -19 15 -32 l20 -25 -12 25 c-7 14 -12 28 -11 33
3 9 -5 9 -12 -1z"/>
<path d="M15 4837 c-14 -17 -15 -61 -1 -69 8 -6 8 -8 -1 -8 -10 0 -13 -499
-13 -2381 l0 -2380 180 2 c100 1 183 6 186 11 3 5 10 5 16 2 7 -4 8 -2 4 5 -5
7 -12 9 -19 3 -17 -12 -55 -13 -63 0 -4 7 -9 6 -14 -2 -5 -9 -9 -9 -14 -1 -4
6 -2 11 3 11 19 0 12 20 -6 21 -10 0 -13 3 -6 5 7 3 10 13 7 22 -3 9 1 7 8 -5
7 -12 17 -22 23 -22 5 0 11 -5 13 -13 2 -9 0 -8 -7 2 -7 9 -11 10 -11 3 0 -20
20 -26 26 -8 5 11 9 13 14 5 5 -8 10 -7 18 3 10 12 8 14 -13 11 -17 -1 -25 2
-22 9 3 7 10 11 17 9 10 -2 10 1 -1 14 -13 16 -12 17 6 11 19 -7 19 -6 3 7
-24 18 -23 29 2 16 14 -7 20 -7 20 0 0 5 -6 10 -14 10 -19 0 -40 26 -26 35 5
3 10 1 10 -4 0 -6 5 -11 11 -11 5 0 8 4 4 9 -3 6 3 15 12 21 17 10 17 10 -1 8
-10 -2 -21 3 -23 10 -3 8 2 10 14 6 17 -5 17 -5 0 6 -23 15 -42 3 -26 -16 10
-13 6 -18 -13 -15 -8 1 -5 -20 5 -36 5 -7 4 -13 -1 -13 -5 0 -8 -14 -7 -30 1
-17 -1 -30 -6 -30 -9 0 -13 15 -10 33 1 5 -9 6 -21 2 -23 -6 -23 -6 -2 7 12 7
19 18 17 25 -2 6 1 14 8 19 8 5 5 11 -11 19 -19 10 -20 13 -6 18 10 4 15 3 11
-3 -3 -6 -2 -10 4 -10 18 0 23 20 7 26 -9 3 -16 11 -16 16 0 7 5 6 13 -1 8 -6
17 -8 20 -4 10 9 9 25 -1 19 -4 -2 -9 5 -9 17 -2 15 0 18 6 8 10 -16 20 -3 16
21 -3 17 17 15 43 -5 16 -12 16 5 0 21 -7 7 -9 12 -4 12 10 0 30 -23 34 -38 1
-8 -2 -11 -9 -6 -8 5 -9 3 -4 -7 5 -8 0 -7 -12 3 -24 22 -44 23 -37 3 3 -8 9
-14 12 -13 22 2 32 -3 26 -14 -4 -7 7 -2 24 11 18 12 32 27 32 32 0 6 4 8 9 5
13 -9 31 18 22 33 -6 10 -10 9 -15 -4 -3 -9 -11 -13 -17 -9 -7 4 -9 3 -6 -3 3
-5 0 -10 -7 -10 -7 0 -19 10 -26 21 -12 19 -12 20 3 8 14 -12 19 -11 37 1 11
7 17 18 12 23 -4 4 1 3 10 -4 14 -11 18 -10 28 7 6 12 17 21 25 21 8 0 15 5
15 12 0 6 2 9 5 6 12 -11 -7 -37 -23 -32 -10 3 -6 -3 8 -14 14 -11 29 -20 34
-20 5 0 13 -6 17 -14 7 -10 9 -9 9 5 0 12 -6 17 -17 15 -13 -2 -17 3 -15 17 2
11 3 28 3 38 0 18 14 23 24 8 3 -5 1 -12 -5 -16 -6 -4 -8 -11 -5 -16 4 -5 1
-9 -6 -9 -7 0 -9 -3 -6 -6 9 -9 38 16 31 27 -3 5 0 9 5 9 6 0 11 -6 11 -12 0
-9 4 -8 10 2 8 13 14 8 12 -11 -1 -3 6 -6 14 -6 10 0 8 7 -8 24 l-23 25 26 -7
c15 -4 30 -2 33 3 4 6 -3 8 -16 5 -17 -3 -19 -2 -10 5 11 7 10 10 -3 16 -25 9
-32 7 -15 -5 13 -9 12 -10 -3 -5 -10 3 -15 2 -12 -3 10 -17 -10 -19 -30 -4
-14 11 -15 14 -4 10 17 -6 39 9 39 26 0 5 -7 4 -15 -3 -9 -7 -18 -10 -22 -6
-3 3 -1 6 5 6 6 0 23 22 37 50 18 35 29 48 40 44 11 -5 13 -10 5 -19 -6 -7 -8
-19 -5 -27 3 -8 -2 -21 -11 -29 -16 -12 -17 -12 -11 3 3 10 2 20 -2 23 -5 3
-12 -3 -15 -12 -8 -21 19 -44 41 -36 12 5 12 7 1 14 -12 8 -4 13 14 10 4 0 5
6 2 14 -4 8 -1 15 5 15 6 0 11 5 11 11 0 5 -5 7 -10 4 -6 -3 -10 -2 -10 4 0
15 18 23 25 11 3 -5 14 -10 23 -9 14 0 14 2 -2 8 -18 7 -17 9 9 34 16 14 32
24 37 21 4 -3 8 0 8 5 0 6 -8 11 -17 11 -14 0 -15 2 -4 13 10 10 15 8 27 -7 8
-11 14 -16 14 -10 -1 18 -28 45 -35 34 -3 -5 -11 -7 -17 -4 -7 5 -8 2 -3 -5 6
-10 3 -11 -15 -1 -20 11 -22 10 -18 -7 4 -13 0 -19 -13 -20 -12 -1 -19 5 -19
15 0 15 2 15 10 2 9 -13 10 -13 10 0 0 8 8 24 17 35 14 18 15 18 9 2 -4 -13
-2 -17 6 -14 7 2 13 12 13 22 0 36 45 21 46 -15 1 -3 5 -11 11 -18 9 -10 15
-9 34 3 14 9 25 11 29 5 3 -6 12 -10 18 -10 8 0 8 3 -2 9 -8 5 -9 11 -3 15 6
4 15 -2 21 -11 9 -17 10 -17 17 0 6 17 7 17 27 0 11 -10 17 -12 13 -5 -13 21
12 13 28 -10 9 -12 16 -18 16 -12 0 5 -5 15 -11 21 -7 7 -3 10 15 10 16 0 23
-4 19 -11 -3 -6 0 -6 8 2 21 19 34 14 16 -6 -14 -15 -15 -19 -2 -19 8 0 12 4
10 8 -7 10 17 26 38 26 13 0 16 -6 11 -21 -6 -19 -6 -19 11 -3 13 14 20 15 31
6 10 -8 14 -8 14 0 0 6 -4 11 -10 11 -5 0 -7 8 -3 18 5 14 3 13 -11 -3 -17
-20 -17 -20 -6 2 9 19 8 23 -4 23 -8 0 -17 4 -20 9 -4 5 3 7 14 4 11 -3 20 0
20 6 0 6 5 11 11 11 8 0 7 -6 -2 -17 -12 -15 -12 -16 3 -10 12 4 15 2 11 -9
-3 -8 0 -21 7 -29 10 -13 10 -19 -3 -33 -15 -16 -15 -18 3 -18 10 0 16 4 14 8
-3 4 -1 15 4 23 7 14 13 12 46 -10 21 -14 40 -24 42 -22 2 2 -14 14 -35 28
-24 15 -37 30 -34 39 4 13 4 13 -7 0 -10 -13 -11 -13 -6 3 3 9 1 17 -4 17 -6
0 -10 7 -10 15 0 8 5 15 11 15 5 0 8 -4 5 -9 -3 -5 2 -15 11 -22 15 -12 16
-12 9 5 -7 19 -6 19 12 3 20 -18 32 -12 45 23 4 10 6 9 6 -6 1 -11 4 -24 8
-27 9 -10 34 14 26 26 -3 6 -1 7 6 3 9 -6 9 -11 0 -23 -11 -12 -10 -14 2 -13
24 4 39 0 39 -8 0 -5 -19 -8 -42 -7 -38 2 -43 -1 -44 -21 -2 -23 -2 -23 19 -3
29 26 44 24 21 -3 -17 -21 -16 -21 9 1 30 27 37 19 10 -13 -17 -19 -16 -19 10
1 31 24 61 20 54 -6 -2 -11 2 -17 13 -17 16 0 16 2 3 23 -9 13 -19 23 -24 23
-5 0 -6 8 -2 18 5 14 3 13 -11 -3 -17 -20 -17 -20 -6 2 9 19 8 23 -4 23 -8 0
-17 4 -20 9 -4 5 3 7 14 4 11 -3 20 0 20 6 0 6 5 11 11 11 8 0 8 -4 0 -14 -8
-10 -9 -16 -1 -21 5 -3 10 0 10 7 0 9 3 9 10 -2 5 -8 10 -19 10 -25 0 -5 -5
-3 -10 5 -5 8 -10 11 -10 5 1 -5 7 -19 15 -29 8 -11 15 -14 15 -7 0 7 3 10 8
7 11 -6 47 22 38 31 -4 4 -12 1 -17 -7 -9 -12 -10 -11 -5 5 6 20 6 20 -9 1
-16 -22 -21 -10 -5 14 7 12 13 12 27 4 14 -9 24 -8 43 3 17 11 20 11 9 2 -9
-8 -14 -21 -12 -29 4 -13 3 -13 -7 0 -10 13 -11 13 -6 -2 3 -11 -2 -19 -15
-23 -20 -7 -27 -25 -9 -25 6 0 10 5 10 11 0 6 7 9 15 5 8 -3 14 -2 14 2 -3 18
2 22 15 10 10 -10 11 -15 2 -21 -7 -6 -6 -7 3 -5 8 2 15 14 16 25 1 14 -3 19
-12 16 -17 -7 -16 -2 2 33 10 19 15 23 15 12 0 -12 5 -15 17 -11 14 6 13 9 -7
25 -12 10 -19 18 -14 18 4 0 15 -7 24 -15 10 -9 30 -18 45 -21 26 -5 27 -3 14
13 -7 10 -1 7 14 -6 32 -29 33 -31 7 -26 -11 2 -24 -4 -30 -13 -9 -14 -10 -14
-5 5 5 18 2 21 -18 19 -13 -2 -29 -6 -35 -9 -17 -11 -7 -42 14 -44 15 -1 15
-1 2 3 -20 6 -13 34 8 34 12 0 19 -19 15 -42 0 -5 4 -7 11 -5 7 1 12 -3 13
-10 0 -6 3 -14 6 -18 4 -3 6 2 5 12 0 10 4 19 9 21 20 6 37 52 25 67 -8 10 -8
15 1 21 8 4 9 3 5 -5 -13 -20 24 -24 46 -5 l22 19 -20 -27 c-10 -14 -23 -25
-28 -25 -4 1 -10 -6 -11 -16 -2 -11 -1 -16 2 -13 4 3 11 2 17 -3 18 -13 48
-22 41 -12 -3 5 -1 12 5 16 5 3 10 1 10 -5 0 -6 3 -9 8 -7 10 5 42 -30 34 -38
-4 -3 2 -3 13 1 11 5 14 9 7 12 -7 2 -9 8 -6 13 9 15 34 -10 27 -27 -3 -7 -9
-11 -14 -8 -5 3 -9 0 -9 -5 0 -17 10 -13 41 18 17 17 25 32 19 36 -5 3 -9 16
-9 28 1 20 2 21 6 2 3 -11 9 -25 14 -31 5 -6 3 -16 -4 -24 -10 -10 -9 -12 6
-7 10 4 16 3 13 -2 -3 -5 1 -12 10 -15 8 -3 13 -10 9 -15 -3 -5 4 -12 15 -16
21 -7 28 -25 9 -25 -5 0 -7 -5 -4 -10 5 -8 11 -7 21 1 8 6 14 7 14 3 0 -12
-36 -35 -43 -28 -3 3 -3 16 -1 29 3 19 0 23 -15 22 -11 0 -17 -5 -14 -11 3 -5
1 -6 -6 -2 -6 4 -9 12 -6 17 4 5 1 9 -4 9 -14 0 -14 -30 -1 -31 6 -1 15 -3 20
-4 6 -1 13 -3 18 -4 4 -1 1 -5 -7 -10 -7 -5 -10 -14 -7 -20 4 -6 12 -8 18 -5
7 5 9 2 5 -8 -3 -9 0 -21 6 -27 8 -8 7 -11 -6 -11 -9 0 -17 -5 -17 -11 0 -5
-4 -8 -9 -5 -11 7 -8 -21 4 -31 4 -4 5 -3 2 3 -4 7 0 17 8 24 20 17 45 -3 38
-30 -3 -11 0 -20 6 -20 6 0 8 8 4 18 -3 9 11 0 31 -21 34 -35 54 -49 41 -27
-9 15 3 12 25 -7 16 -14 17 -20 7 -32 -11 -14 -10 -14 5 -2 10 7 15 17 12 22
-3 5 2 9 10 9 9 0 15 3 15 8 -3 19 2 29 16 29 8 0 12 -4 9 -9 -3 -4 0 -8 5 -8
6 0 10 -3 10 -7 -3 -20 2 -26 11 -13 7 11 10 11 10 2 0 -8 5 -10 13 -6 9 6 9
5 0 -8 -7 -8 -10 -18 -6 -21 3 -4 12 1 20 11 8 9 12 11 8 5 -3 -7 -2 -13 4
-13 5 0 12 6 14 13 4 9 6 9 6 -1 1 -8 -8 -16 -19 -19 -11 -3 -17 -9 -14 -14 3
-5 12 -5 23 0 15 8 16 5 13 -27 l-5 -37 22 19 c11 11 21 14 21 8 0 -7 -4 -12
-10 -12 -5 0 -10 -5 -10 -11 0 -5 4 -7 10 -4 5 3 18 1 27 -4 12 -7 14 -10 4
-11 -11 0 -11 -3 0 -17 12 -16 12 -17 -2 -5 -13 10 -18 10 -28 -1 -6 -8 -8
-17 -4 -21 4 -4 -3 -16 -17 -26 -21 -16 -23 -21 -12 -45 9 -19 9 -32 1 -46
-10 -19 -9 -20 10 -9 18 9 19 14 10 32 -9 16 -8 19 3 13 7 -3 5 0 -4 8 -19 15
-24 37 -9 37 5 0 13 -9 16 -21 6 -19 8 -19 24 -5 10 9 21 16 26 16 4 0 -2 -9
-15 -20 -21 -18 -20 -25 3 -21 5 1 6 -3 2 -9 -5 -8 -11 -8 -20 0 -10 8 -13 5
-11 -15 1 -27 11 -33 19 -12 4 9 6 9 6 0 1 -7 6 -13 12 -13 6 0 8 8 5 17 -6
17 -5 17 8 0 12 -16 68 -17 924 -17 635 1 913 4 918 11 4 8 9 7 14 -1 5 -9 9
-9 14 -1 4 6 2 11 -5 11 -7 0 -5 10 7 27 14 23 15 26 1 15 -14 -12 -16 -11
-14 7 1 23 29 37 48 25 8 -5 9 -3 4 5 -4 7 -17 10 -29 7 -17 -4 -22 -1 -22 14
0 15 6 19 25 15 17 -3 21 -1 13 7 -6 6 -8 16 -6 23 3 7 1 16 -5 20 -6 3 -11
11 -11 17 0 6 6 6 15 -2 9 -7 18 -10 22 -6 3 3 1 6 -6 6 -7 0 -9 5 -6 10 4 6
12 8 18 4 7 -3 3 2 -7 10 -11 9 -18 16 -15 17 2 0 12 2 22 5 9 2 25 6 34 7 9
2 20 12 24 23 5 12 8 14 8 5 1 -12 4 -12 13 -3 15 15 32 16 23 2 -3 -6 -1 -10
5 -10 7 0 10 6 7 13 -2 6 -14 11 -26 10 -12 -2 -20 1 -17 6 3 4 -4 8 -16 7
-13 -1 -22 6 -24 17 -2 18 -2 18 17 1 21 -19 26 -6 7 16 -11 12 -10 12 5 0 17
-12 18 -12 15 5 -1 10 4 20 12 22 12 4 13 3 1 -5 -11 -8 -9 -11 10 -18 27 -9
34 -11 49 -13 6 0 10 -6 10 -12 0 -8 -4 -8 -14 0 -11 9 -15 9 -19 -1 -4 -11
-6 -10 -6 0 -1 7 -5 10 -11 7 -5 -3 -10 -1 -10 5 0 6 -4 8 -10 5 -25 -15 -9
-24 43 -26 14 0 16 -3 7 -14 -8 -9 -8 -15 0 -20 6 -3 7 -11 4 -17 -4 -7 -2 -8
5 -4 9 6 9 11 1 21 -16 19 15 42 35 25 8 -7 13 -16 10 -19 -2 -4 2 -8 10 -8 8
0 15 4 15 9 0 4 -5 8 -12 8 -6 0 -1 11 12 25 22 23 25 24 42 8 20 -18 25 -4 6
15 -9 9 -9 12 0 12 7 0 12 -4 12 -10 0 -5 7 -7 15 -4 8 4 13 10 10 14 -3 5 -1
11 4 14 5 4 8 -1 7 -10 -1 -8 -8 -19 -15 -24 -8 -4 -9 -10 -3 -14 5 -3 15 1
22 9 10 12 16 12 34 3 28 -16 59 -21 51 -8 -3 5 -1 10 4 10 6 0 11 -5 11 -11
0 -5 5 -7 10 -4 8 5 7 11 -1 21 -8 10 -8 14 0 14 6 0 11 -4 11 -10 0 -5 5 -10
10 -10 7 0 7 6 0 19 -7 15 -7 19 4 17 8 -1 20 -7 27 -12 23 -17 59 -15 59 4 0
10 3 13 8 7 4 -5 14 -12 22 -13 8 -2 12 0 8 4 -4 4 4 18 18 31 14 12 21 23 16
23 -5 0 -17 -9 -27 -20 -10 -12 -25 -18 -32 -16 -7 3 -17 -3 -22 -12 -8 -14
-10 -14 -11 -2 0 10 -3 11 -8 3 -5 -8 -14 -6 -31 8 -13 10 -18 19 -13 19 6 0
14 -4 17 -10 8 -13 48 -6 53 10 3 7 -2 17 -9 22 -11 8 -10 9 3 5 12 -4 16 0
15 14 -1 18 -10 23 -30 20 -5 -1 -6 3 -2 8 3 6 12 8 20 4 11 -4 14 0 9 13 -4
11 -12 26 -18 34 -9 13 -9 13 6 2 9 -8 22 -11 27 -8 5 4 13 2 16 -4 4 -6 1 -9
-6 -8 -6 2 -14 -3 -16 -10 -3 -8 1 -10 14 -6 16 6 16 5 -2 -10 -20 -17 -19
-17 4 -6 19 10 22 9 19 -2 -3 -7 -10 -13 -16 -13 -5 0 -14 -3 -18 -7 -4 -5 0
-8 9 -8 9 0 17 -5 17 -11 0 -5 -4 -8 -9 -4 -11 6 -26 -13 -17 -22 7 -8 44 25
58 51 7 14 7 17 -2 11 -9 -5 -10 -1 -6 16 3 13 3 18 0 11 -3 -6 -10 -9 -15 -6
-6 3 -6 11 2 20 6 7 15 11 20 8 5 -3 6 2 2 11 -4 12 -8 13 -13 5 -5 -8 -9 -7
-14 5 -8 22 -8 27 2 21 5 -3 9 1 9 9 0 17 -14 20 -19 4 -2 -6 -12 -1 -23 11
l-19 21 29 -6 30 -6 -30 14 c-25 11 -27 14 -11 20 10 4 23 4 29 1 9 -5 9 -4 1
5 -9 10 -18 9 -42 -3 -17 -9 -33 -12 -36 -7 -6 9 22 26 38 22 5 -1 4 5 -3 13
-7 8 -9 21 -5 27 5 8 3 9 -5 5 -7 -5 -10 -14 -7 -22 3 -7 -3 -18 -14 -24 -25
-13 -30 -13 -24 4 3 8 1 17 -5 21 -7 3 -8 0 -5 -9 4 -11 0 -16 -11 -16 -9 0
-13 -5 -10 -10 4 -6 10 -8 14 -6 4 3 12 2 17 -2 7 -5 4 -17 -9 -37 -18 -28
-18 -24 -1 23 6 14 4 15 -7 4 -7 -6 -18 -12 -23 -12 -6 0 -4 5 4 10 9 6 10 10
3 10 -6 0 -11 9 -10 19 0 11 5 17 9 15 4 -3 8 -1 8 4 0 14 -28 23 -35 12 -4
-6 -11 -10 -17 -10 -6 0 -3 9 6 19 17 19 17 19 -1 17 -20 -3 -25 -24 -9 -44 7
-11 11 -11 18 0 7 10 9 10 5 -2 -2 -8 0 -27 4 -43 5 -16 4 -25 -2 -22 -5 4 -9
14 -9 24 0 22 -19 41 -35 35 -7 -3 -16 0 -20 6 -5 8 -11 7 -23 -2 -12 -9 -11
-6 2 10 11 13 14 22 7 22 -7 0 -10 12 -7 33 3 17 3 26 -1 19 -4 -10 -9 -9 -24
4 -10 9 -19 24 -19 32 0 8 -6 12 -15 9 -8 -4 -17 -2 -20 4 -4 5 -11 6 -17 3
-7 -4 -5 -10 6 -16 9 -5 21 -6 28 -2 7 4 8 3 4 -4 -4 -7 -1 -12 6 -12 10 0 9
-3 -2 -11 -13 -10 -13 -10 0 -6 10 3 16 -2 17 -14 2 -18 1 -18 -19 1 -12 11
-25 17 -31 13 -5 -3 -3 -9 4 -14 10 -6 10 -9 2 -9 -16 0 -26 17 -13 25 16 10
12 21 -12 33 -13 6 -17 11 -10 11 7 1 10 6 6 13 -4 6 -3 8 4 4 6 -3 13 -2 16
3 3 5 -1 11 -9 15 -8 3 -19 -3 -25 -12 -9 -14 -10 -13 -4 7 4 16 3 21 -5 17
-6 -4 -11 -3 -11 3 0 5 9 9 20 8 11 -1 20 -4 20 -8 0 -4 10 -11 21 -14 17 -6
19 -9 8 -16 -10 -6 -7 -8 9 -6 22 1 22 2 -9 28 -21 17 -28 28 -21 33 7 4 12 3
12 -3 0 -6 9 -15 19 -21 15 -7 19 -7 17 5 -1 8 -6 18 -11 22 -4 4 -5 2 -1 -5
4 -6 3 -12 -2 -12 -6 0 -13 7 -16 16 -3 8 -11 12 -17 9 -6 -4 -9 -1 -7 8 2 8
-8 24 -22 36 -22 19 -23 21 -5 19 11 -2 25 -10 32 -18 7 -9 12 -10 13 -4 0 19
-23 31 -56 29 -23 -1 -31 2 -27 12 3 7 -1 13 -8 13 -11 0 -11 3 1 10 8 5 10
10 4 10 -18 0 -57 -47 -45 -55 6 -3 11 2 11 12 1 17 1 17 15 -1 8 -10 19 -15
26 -10 8 5 10 3 4 -6 -6 -9 -4 -11 5 -5 9 6 11 4 5 -5 -5 -8 -4 -11 3 -6 7 4
10 -1 7 -13 -2 -13 3 -22 16 -26 11 -4 16 -11 13 -17 -4 -6 -10 -5 -15 3 -5 8
-9 10 -9 5 0 -4 -9 2 -21 15 -18 21 -20 22 -14 4 5 -16 4 -17 -6 -8 -10 10 -9
16 2 29 12 16 12 17 -4 11 -11 -4 -16 -3 -12 4 4 6 1 10 -6 8 -46 -6 -49 7
-15 48 26 30 22 60 -4 43 -12 -8 -12 -10 4 -10 18 0 18 -1 1 -20 -10 -11 -22
-17 -27 -14 -6 4 -5 10 2 14 9 6 7 11 -8 19 -25 13 -43 15 -23 2 18 -11 24
-44 8 -38 -7 3 -11 10 -9 16 1 7 -2 10 -7 7 -5 -4 -11 0 -14 6 -2 7 -8 10 -12
5 -5 -4 0 -14 11 -23 10 -8 14 -13 7 -10 -6 4 -15 1 -19 -5 -4 -7 -3 -9 2 -6
6 3 16 2 24 -3 9 -5 20 -4 30 3 13 10 13 10 1 -5 -9 -12 -18 -15 -30 -9 -9 5
-22 6 -30 3 -9 -3 -11 1 -7 16 4 11 2 23 -3 26 -6 4 -8 14 -5 24 4 10 3 13 -3
6 -4 -6 -15 -14 -23 -17 -12 -4 -11 -6 3 -6 10 -1 15 -6 12 -11 -4 -7 -13 -6
-26 1 -13 6 -17 15 -12 23 4 6 0 3 -10 -8 -10 -10 -16 -25 -13 -32 3 -7 -2
-18 -10 -25 -9 -8 -11 -16 -5 -23 7 -8 4 -12 -9 -12 -16 0 -17 3 -7 21 17 30
17 46 2 69 -8 12 -14 25 -14 29 1 5 -2 11 -5 14 -3 3 -3 -5 -1 -17 2 -12 7
-25 9 -28 3 -2 1 -14 -5 -25 -8 -14 -8 -18 0 -13 15 10 13 -5 -3 -27 -12 -16
-14 -16 -20 -2 -3 9 -2 14 2 11 5 -3 9 10 9 29 0 41 -2 42 -18 14 -9 -17 -8
-20 2 -14 8 5 10 4 5 -4 -11 -17 -29 -2 -21 18 5 12 3 13 -5 5 -9 -9 -8 -20 4
-45 15 -32 15 -32 0 -12 -15 22 -42 34 -30 14 4 -5 -3 -7 -14 -4 -18 5 -30 25
-12 22 20 -3 28 3 29 23 l2 23 -13 -23 c-6 -12 -15 -19 -19 -16 -11 11 -8 26
3 19 6 -3 10 -1 10 5 0 7 -7 10 -15 7 -8 -4 -17 -2 -20 3 -7 12 -32 2 -39 -15
-3 -8 0 -17 6 -21 6 -4 8 -3 5 3 -4 6 1 17 10 24 15 12 16 12 10 -4 -5 -12 -3
-16 5 -11 7 5 8 3 3 -6 -6 -9 -4 -11 6 -5 12 8 12 6 0 -8 -12 -15 -10 -18 10
-26 14 -6 18 -10 9 -10 -9 -1 -22 5 -29 11 -11 11 -12 9 -6 -9 3 -13 2 -23 -3
-23 -11 0 -12 32 0 46 6 8 -2 11 -24 11 -18 0 -42 3 -53 7 -20 8 -20 7 -1 -8
17 -14 18 -16 3 -16 -15 0 -22 11 -18 32 0 5 -3 8 -8 8 -14 0 -7 60 8 70 8 4
16 16 17 24 1 9 -2 14 -7 10 -5 -3 -7 -9 -5 -13 3 -4 -4 -12 -15 -19 -10 -7
-19 -8 -19 -3 0 6 4 13 10 16 6 3 10 11 10 18 0 6 -6 3 -14 -8 -15 -23 -17
-55 -4 -55 5 0 6 -5 3 -11 -9 -14 -15 -7 -21 26 -3 15 0 33 6 41 7 7 9 18 6
23 -7 10 10 24 32 27 8 2 17 5 20 8 3 4 -4 5 -16 3 -12 -2 -25 -6 -28 -10 -11
-11 -26 -8 -19 3 3 5 1 10 -4 10 -6 0 -10 3 -10 8 1 4 0 10 -1 15 -7 20 -4 33
8 46 9 10 10 17 1 27 -6 7 -7 19 -3 26 12 19 14 39 3 32 -5 -3 -9 0 -9 7 0 8
-4 8 -15 -1 -9 -7 -12 -16 -7 -19 5 -3 8 -14 6 -23 -1 -10 1 -18 5 -18 4 0 8
-7 8 -15 0 -8 -4 -12 -8 -10 -4 3 -6 -3 -4 -12 1 -10 -2 -24 -8 -31 -7 -9 -4
-12 9 -12 16 0 17 -2 4 -10 -9 -6 -10 -10 -3 -10 14 0 13 -40 -2 -40 -7 0 -7
-3 0 -8 19 -13 14 -78 -8 -91 -18 -12 -19 -12 -3 10 21 30 20 40 -1 33 -17 -5
-17 -5 -1 6 18 11 13 45 -5 33 -6 -3 -7 -1 -3 5 3 6 -2 15 -11 21 -10 6 -13
11 -7 11 5 0 16 -6 23 -13 10 -10 11 -6 6 18 -4 17 -7 36 -7 43 -1 6 -6 12
-12 12 -6 0 -4 5 4 10 8 5 11 10 6 10 -5 0 -4 6 1 13 15 18 12 49 -3 43 -8 -3
-16 -1 -19 5 -4 5 -11 6 -17 3 -7 -4 -8 -2 -4 5 6 8 12 9 20 2 16 -13 27 -4
19 15 -3 8 0 14 7 14 6 0 9 4 6 8 -6 11 34 9 52 -1 7 -5 12 -4 12 2 0 6 -6 11
-12 11 -7 1 -2 10 12 22 14 12 18 19 8 15 -10 -3 -19 0 -22 9 -8 22 -7 26 4
19 5 -3 10 -1 10 5 0 6 -8 9 -18 6 -13 -4 -19 -1 -19 9 0 9 6 14 13 11 8 -3
16 0 20 6 5 7 2 8 -6 3 -8 -5 -11 -3 -8 6 3 8 12 13 22 11 9 -2 16 2 16 8 0 5
-3 9 -7 8 -5 0 -16 2 -26 7 -14 6 -15 10 -5 24 8 11 5 10 -10 -3 -12 -11 -25
-16 -29 -13 -4 4 2 13 12 21 10 7 19 26 21 41 3 28 3 28 -12 6 -8 -11 -20 -21
-26 -21 -6 0 -3 10 8 22 14 17 15 20 2 9 -17 -13 -38 -8 -38 9 0 5 8 7 18 4
14 -5 15 -4 2 5 -21 15 -30 14 -30 -3 0 -8 -5 -18 -11 -22 -8 -4 -9 0 -4 15 4
13 2 21 -5 21 -6 0 -8 5 -4 12 6 10 4 10 -8 0 -11 -9 -18 -10 -23 -2 -3 5 -1
10 5 10 6 0 8 5 5 10 -3 6 -11 10 -16 10 -6 0 -7 -4 -4 -10 3 -5 2 -10 -3 -10
-18 0 -21 29 -4 33 9 3 5 4 -10 4 -15 -1 -25 -4 -22 -8 2 -4 0 -10 -6 -14 -17
-11 -11 -24 10 -20 11 2 20 -1 20 -6 0 -6 5 -7 12 -3 7 5 8 3 3 -6 -5 -8 -4
-11 3 -6 6 3 13 2 17 -4 4 -6 11 -7 17 -4 7 4 8 2 4 -5 -4 -6 -12 -8 -18 -5
-6 4 -9 1 -6 -7 3 -8 13 -14 24 -14 10 1 22 -4 26 -10 5 -6 8 -4 8 5 1 9 6 5
15 -10 9 -18 10 -29 3 -37 -7 -9 -7 -13 0 -13 5 0 9 -7 8 -16 0 -9 6 -19 14
-22 13 -5 13 -3 1 11 -7 10 -9 17 -3 17 17 0 23 -30 6 -37 -13 -5 -13 -7 -2
-14 10 -7 10 -9 1 -9 -7 0 -13 -5 -13 -11 0 -5 4 -8 9 -4 5 3 13 0 17 -6 4 -7
3 -9 -4 -5 -7 4 -10 -1 -7 -14 2 -11 0 -22 -4 -25 -11 -6 -36 23 -27 32 3 3 6
1 6 -6 0 -7 5 -9 12 -5 8 5 6 11 -6 20 -11 8 -13 14 -6 19 12 7 4 25 -11 25
-6 0 -8 -4 -5 -8 3 -5 -1 -9 -9 -9 -10 0 -12 4 -5 12 5 7 7 15 3 19 -4 4 0 4
9 1 24 -10 12 31 -16 51 -19 14 -19 15 -2 12 10 -2 21 2 23 9 5 13 -35 11 -57
-2 -9 -5 -11 -4 -6 3 4 7 1 21 -7 33 -11 15 -16 17 -21 7 -3 -7 -4 -5 -3 6 1
10 -4 21 -11 23 -7 3 -10 -1 -6 -11 3 -9 -8 -3 -25 13 -18 17 -38 28 -47 24
-7 -3 -14 0 -14 6 0 6 -5 11 -11 11 -5 0 -7 -5 -3 -12 4 -6 3 -8 -4 -4 -5 3
-13 0 -16 -6 -4 -9 -5 -8 -5 2 2 31 -1 41 -13 34 -7 -4 -8 -3 -4 4 4 7 3 12
-3 12 -5 0 -12 -6 -14 -12 -4 -10 -6 -10 -6 0 -1 8 8 16 19 19 11 3 17 10 14
15 -3 5 -15 3 -28 -6 -19 -12 -23 -12 -23 -1 0 8 4 12 9 9 4 -3 8 4 8 16 0 12
-4 19 -9 16 -12 -8 -22 20 -14 41 6 16 5 16 -10 5 -9 -8 -22 -12 -29 -9 -8 4
-7 6 4 6 10 1 22 10 28 21 9 17 7 22 -12 30 -18 7 -19 9 -5 9 10 1 16 5 12 11
-3 5 -13 7 -23 3 -11 -3 -9 1 6 11 12 10 20 22 16 27 -3 6 -11 3 -18 -6 -10
-15 -12 -14 -12 4 0 11 4 19 9 18 5 -1 12 4 15 12 2 8 0 11 -5 8 -5 -3 -9 5
-9 18 0 17 5 22 18 20 11 -2 18 2 18 10 0 11 -9 14 -32 11 -29 -3 -30 -2 -14
9 23 17 61 2 63 -26 1 -12 -3 -17 -9 -13 -7 5 -8 2 -3 -6 5 -8 4 -11 -2 -7 -6
4 -10 -6 -9 -24 1 -16 7 -34 14 -38 11 -6 10 -10 -4 -15 -15 -6 -12 -21 4 -21
4 0 13 -4 20 -9 7 -4 16 -5 19 -2 4 3 1 6 -6 6 -7 0 -9 5 -5 12 5 7 3 8 -6 3
-10 -6 -12 -4 -7 9 4 10 1 19 -8 22 -8 4 -12 10 -9 16 3 5 11 4 20 -3 10 -8
14 -8 14 0 0 6 -4 11 -9 11 -4 0 -7 18 -6 40 2 31 -2 43 -16 51 -33 17 -20 30
14 13 17 -9 27 -11 20 -4 -6 7 -9 19 -6 26 3 8 0 14 -7 14 -6 0 -9 4 -6 8 3 5
-1 9 -9 9 -8 0 -11 -5 -8 -11 4 -6 -1 -4 -11 3 -16 13 -18 13 -16 0 4 -26 0
-37 -17 -43 -15 -6 -15 -4 2 14 11 12 13 20 6 20 -7 0 -10 4 -7 9 3 5 -1 14
-9 21 -8 7 -15 17 -15 23 0 6 7 1 16 -12 13 -18 18 -20 25 -10 5 9 2 16 -9 21
-16 6 -15 7 1 7 10 1 16 5 13 10 -3 5 3 20 14 34 24 30 26 45 5 27 -8 -7 -15
-11 -16 -9 0 2 -2 18 -4 34 -3 27 -3 28 8 10 12 -19 37 -32 37 -18 0 3 -8 16
-17 27 -18 21 -18 21 5 2 23 -20 31 -9 10 12 -8 8 -9 12 -1 12 6 0 13 -6 16
-12 2 -7 8 -9 13 -5 5 5 1 15 -10 23 -27 19 -11 18 18 -2 16 -10 26 -12 31 -5
3 6 2 11 -2 11 -5 0 -18 7 -29 15 -13 11 -14 14 -4 13 8 -2 18 -7 23 -13 4 -7
10 -7 15 0 4 6 21 19 37 29 22 15 27 15 17 4 -10 -13 -10 -17 0 -20 8 -3 2
-12 -17 -24 -16 -10 -31 -27 -33 -38 -2 -11 1 -15 7 -11 6 3 11 13 11 21 0 20
12 18 38 -6 12 -12 22 -16 22 -11 0 6 -7 14 -17 19 -14 9 -14 11 6 21 19 11
22 10 19 -5 -2 -10 4 -18 15 -20 15 -2 16 0 6 12 -6 8 -9 18 -5 22 4 4 12 -1
17 -11 6 -10 15 -14 22 -10 21 13 48 11 43 -4 -3 -7 -1 -13 4 -13 13 0 13 27
0 35 -6 4 -8 10 -5 15 3 5 -5 14 -17 20 -22 11 -22 10 -4 -4 11 -9 15 -16 10
-16 -6 0 -16 6 -23 13 -11 10 -12 9 -6 -2 6 -10 4 -12 -6 -6 -11 7 -12 6 -2
-7 7 -8 10 -18 7 -21 -10 -9 -52 57 -44 68 4 6 6 18 5 28 -2 9 0 15 5 12 9 -6
7 -31 -3 -41 -9 -10 13 -35 24 -28 14 8 11 26 -3 18 -7 -4 -10 -3 -5 1 9 11
48 14 42 4 -3 -4 2 -9 9 -12 8 -3 17 -2 20 4 2 5 3 4 2 -3 -5 -20 27 -68 44
-67 10 0 11 2 2 6 -6 2 -10 9 -7 14 4 5 17 2 31 -7 23 -16 24 -16 17 2 -6 17
-5 17 10 6 8 -8 13 -20 10 -28 -3 -9 1 -14 13 -14 11 0 15 3 9 8 -15 10 -13
34 3 40 7 2 11 0 10 -5 -2 -4 0 -8 3 -8 3 0 14 -7 25 -15 17 -14 18 -14 6 2
-12 15 -11 17 7 15 14 -1 21 -8 21 -21 0 -31 12 -10 15 26 1 18 7 44 13 58 9
22 11 22 12 5 0 -18 2 -18 20 5 11 14 18 30 15 37 -2 7 1 15 8 19 7 4 9 4 5
-1 -4 -4 -3 -16 2 -26 8 -14 5 -21 -11 -32 -14 -10 -16 -16 -8 -19 9 -3 7 -7
-5 -11 -12 -5 -15 -3 -10 6 6 9 5 9 -8 0 -8 -7 -18 -9 -23 -5 -4 4 -3 -3 4
-15 15 -29 24 -34 41 -22 10 6 11 9 3 9 -7 0 -13 5 -13 12 0 6 3 8 7 5 3 -4
13 2 20 13 8 11 22 19 31 18 9 -2 17 3 17 10 0 7 7 17 15 22 10 7 11 10 3 10
-7 0 -13 5 -13 11 0 5 4 8 9 5 4 -3 13 6 20 20 9 20 8 30 -6 51 -23 35 -25 52
-7 77 8 11 14 15 14 9 0 -7 -4 -15 -10 -18 -5 -3 -10 -11 -10 -17 0 -6 8 -4
18 5 10 10 22 14 25 10 4 -3 7 -1 7 4 0 6 -5 13 -12 15 -8 3 -8 9 1 24 8 12
11 13 8 3 -3 -9 -1 -21 5 -27 12 -12 1 -35 -12 -27 -5 3 -11 1 -15 -5 -3 -5 3
-10 14 -10 11 0 23 -4 26 -10 3 -6 12 -10 18 -10 7 0 4 5 -5 11 -10 5 -18 15
-18 21 0 6 7 5 18 -3 15 -12 16 -12 4 2 -13 18 -24 81 -12 74 5 -3 10 -2 13 2
2 5 3 3 1 -3 -1 -6 3 -17 9 -23 9 -9 7 -11 -8 -6 -14 5 -16 4 -7 -3 8 -5 13
-13 13 -18 -1 -5 8 -10 19 -10 11 -1 17 2 14 7 -2 4 -12 5 -22 2 -14 -6 -15
-4 -5 8 7 9 10 27 8 41 -6 30 12 48 26 27 8 -11 12 -10 24 5 8 11 15 14 15 8
0 -19 -4 -27 -12 -25 -5 2 -8 -2 -8 -7 0 -6 7 -10 16 -10 8 0 12 -4 9 -10 -3
-5 -1 -10 5 -10 7 0 9 8 5 20 -7 21 13 25 28 5 4 -6 10 0 13 13 4 12 10 22 15
22 13 0 11 -12 -7 -40 -15 -25 -15 -25 3 -4 10 12 24 30 31 40 12 18 13 18 8
1 -4 -11 -2 -16 5 -12 6 4 8 13 5 20 -6 16 17 38 28 28 4 -4 4 0 0 10 -3 10
-1 17 5 17 6 0 11 -4 11 -10 0 -5 5 -10 11 -10 15 0 2 18 -23 31 -16 9 -19 8
-13 -2 5 -7 4 -10 -2 -6 -6 4 -10 -1 -9 -11 0 -9 -4 -16 -10 -15 -6 1 -25 -11
-42 -27 -18 -16 -32 -24 -32 -17 0 7 -4 6 -10 -3 -8 -13 -10 -13 -10 2 0 9 5
20 10 23 6 3 10 1 10 -5 0 -6 5 -8 10 -5 6 4 8 11 5 16 -11 16 5 31 20 19 9
-8 15 -8 20 0 3 5 1 10 -5 10 -7 0 -9 8 -5 21 5 16 4 19 -5 14 -9 -5 -11 -4
-6 4 10 15 27 4 24 -16 -2 -9 2 -18 7 -20 20 -7 13 37 -8 52 -12 8 -16 15 -10
15 6 0 16 -7 23 -15 7 -8 17 -15 23 -15 5 0 2 10 -9 22 -10 12 -14 18 -7 15 6
-4 14 -3 18 3 6 9 -7 14 -27 11 -5 0 -8 4 -8 10 0 6 9 8 23 3 l22 -6 -24 26
c-14 14 -20 26 -14 26 15 0 10 27 -6 43 -11 10 -12 8 -7 -10 4 -12 2 -24 -5
-29 -7 -4 -10 -2 -7 7 3 8 2 21 -3 30 -4 8 -3 22 2 30 6 10 9 11 9 1 0 -7 5
-10 12 -6 7 5 8 3 3 -6 -6 -9 -4 -11 5 -5 9 6 11 4 5 -5 -6 -9 -4 -11 5 -5 9
6 11 4 5 -5 -5 -8 -4 -11 3 -6 6 3 14 1 18 -5 5 -8 3 -9 -5 -4 -10 5 -11 3 -4
-11 6 -11 9 -36 8 -56 -2 -42 2 -46 21 -21 9 13 9 22 2 30 -12 15 3 18 18 3 6
-6 15 -5 24 1 13 9 12 10 -2 5 -20 -6 -34 10 -16 18 7 3 3 3 -9 1 -12 -3 -25
0 -29 6 -4 7 -3 9 4 5 6 -3 14 -1 18 5 4 8 3 9 -4 5 -11 -7 -17 7 -12 29 1 6
-2 7 -6 2 -4 -4 -15 0 -25 9 -16 14 -16 18 -4 31 8 8 15 20 15 26 0 7 -5 4
-11 -6 -10 -17 -12 -18 -30 -1 -16 14 -21 15 -36 3 -15 -12 -16 -12 -10 3 4
11 -2 22 -19 32 -13 9 -24 12 -24 7 0 -5 9 -13 20 -16 11 -4 18 -11 14 -16 -3
-6 1 -18 10 -28 16 -17 16 -20 1 -35 -9 -9 -21 -16 -28 -16 -6 0 -2 7 9 16 19
15 18 15 -4 11 -12 -3 -20 -1 -16 4 3 5 12 9 20 9 8 0 12 5 9 11 -4 6 -9 8
-12 5 -3 -3 -14 -1 -24 4 -11 6 -20 6 -24 1 -3 -5 2 -12 10 -14 11 -4 10 -4
-2 -3 -10 1 -23 -5 -29 -13 -9 -11 -12 -12 -19 -1 -5 7 -4 11 1 8 5 -3 17 5
27 18 16 21 16 25 3 30 -8 3 -12 12 -9 20 3 8 0 14 -7 14 -6 0 -8 6 -4 13 6
10 4 10 -7 0 -20 -19 -33 -16 -18 5 11 14 11 15 0 5 -15 -13 -41 -7 -41 9 0 6
6 8 14 5 8 -3 17 1 20 8 4 11 0 12 -18 5 -23 -9 -36 -5 -36 11 0 5 8 6 18 2
12 -4 11 -1 -4 10 -26 20 -40 62 -18 53 8 -3 14 -1 14 4 0 6 -7 10 -15 10 -18
0 -19 12 -3 28 7 7 8 12 4 12 -5 0 -2 8 5 17 12 15 12 16 -1 8 -8 -5 -24 -8
-35 -7 -15 2 -17 1 -6 -6 10 -8 11 -10 0 -14 -7 -2 -13 -14 -14 -25 -1 -16 3
-20 18 -17 11 2 17 0 13 -3 -11 -12 -45 -13 -51 -3 -3 6 -1 10 4 10 6 0 11 5
11 11 0 6 -9 8 -22 4 -22 -6 -22 -6 2 12 33 24 38 46 8 39 -13 -3 -17 -3 -11
0 7 3 13 10 13 15 0 6 -4 7 -10 4 -6 -3 -7 1 -3 10 5 13 7 14 14 3 5 -7 9 -10
10 -5 1 4 3 12 4 17 1 6 3 17 4 25 0 8 6 15 12 15 5 0 7 -4 4 -10 -11 -18 -14
-50 -4 -50 5 0 9 5 9 11 0 5 6 7 13 3 8 -5 8 -2 -2 9 -11 14 -11 20 0 34 12
14 12 16 0 9 -9 -6 -12 -5 -9 5 3 8 1 22 -3 31 -6 10 -5 19 1 23 5 3 10 -1 10
-9 0 -8 4 -18 10 -21 11 -7 2 23 -13 43 -12 16 5 16 21 0 20 -20 13 2 -8 24
-23 25 -22 49 2 63 12 7 14 15 8 25 -8 13 -10 12 -10 -2 0 -31 -15 -19 -16 12
-1 25 1 28 12 19 8 -7 16 -10 19 -8 10 10 -32 27 -46 18 -12 -8 -12 -10 1 -19
9 -6 10 -10 3 -10 -6 0 -19 7 -27 16 -17 17 -21 28 -7 20 15 -9 41 5 41 21 0
13 -3 13 -16 3 -12 -11 -18 -10 -32 6 -9 10 -10 13 -2 6 20 -17 35 -15 20 3
-7 9 -10 18 -6 22 3 3 6 1 6 -6 0 -7 5 -9 12 -5 8 5 6 11 -7 20 -16 12 -16 13
3 11 13 -1 19 -7 17 -17 -2 -9 6 -28 18 -41 12 -14 18 -19 13 -12 -6 9 -4 23
4 39 11 19 11 27 2 36 -10 10 -12 7 -10 -11 2 -13 -2 -25 -7 -28 -6 -2 -10 9
-9 24 1 24 5 28 28 26 14 -1 26 2 26 7 0 4 -13 7 -30 6 -34 -2 -42 22 -15 44
17 14 21 0 5 -16 -7 -7 -7 -11 3 -11 15 0 20 34 6 42 -5 4 -9 11 -9 17 0 6 6
6 15 -2 9 -7 18 -10 22 -6 3 3 2 6 -3 6 -6 0 -21 14 -34 32 -17 23 -19 30 -7
25 9 -3 19 -1 23 6 4 7 4 9 -1 5 -4 -4 -16 -3 -26 3 -16 8 -17 13 -7 29 11 17
14 18 29 4 13 -12 19 -12 25 -3 4 7 3 10 -4 5 -6 -3 -16 2 -21 11 -10 17 -12
17 -26 -2 -9 -11 -19 -19 -23 -18 -10 2 -2 -21 10 -28 5 -3 2 -9 -8 -13 -11
-4 -21 -1 -26 8 -5 9 -16 13 -26 10 -14 -5 -14 -4 -2 4 9 7 18 8 26 1 9 -8 12
-1 9 27 -1 24 -10 44 -23 55 -12 9 -18 20 -14 24 4 5 2 5 -5 1 -6 -3 -19 4
-27 16 -9 12 -16 17 -16 11 0 -7 5 -15 11 -18 6 -4 8 -13 5 -21 -3 -8 0 -11
10 -7 11 4 20 -10 12 -20 -2 -1 4 -10 12 -19 11 -11 17 -12 22 -4 6 8 8 8 8
-1 0 -19 -17 -24 -33 -9 -11 11 -17 12 -27 3 -10 -10 -11 -9 -4 3 16 29 13 43
-5 23 -10 -10 -17 -21 -15 -25 3 -4 0 -9 -5 -12 -12 -8 -8 18 5 35 21 28 2 65
-47 90 -22 11 -39 25 -39 32 0 6 -5 4 -11 -5 -10 -18 -2 -44 16 -50 11 -3 16
-28 9 -39 -6 -11 -74 30 -73 44 0 8 2 8 6 -1 2 -6 9 -9 14 -6 6 3 5 12 -3 22
-10 12 -10 14 0 8 6 -4 12 -2 12 3 0 6 -5 11 -11 11 -5 0 -7 4 -4 10 3 5 0 7
-9 4 -8 -3 -12 -12 -9 -20 6 -16 -14 -19 -36 -5 -11 7 -9 10 7 15 14 5 19 12
15 22 -4 11 -8 12 -13 4 -5 -8 -9 -7 -13 5 -4 9 -3 13 3 10 9 -5 15 18 8 28
-2 2 3 11 11 21 12 14 12 16 -4 10 -13 -5 -16 -4 -11 4 4 7 2 12 -4 12 -6 0
-8 5 -5 10 4 6 1 9 -6 8 -6 -2 -14 3 -16 10 -3 7 1 11 7 10 7 -2 15 4 17 12 4
12 3 12 -5 2 -5 -8 -12 -13 -16 -13 -24 3 -30 1 -18 -11 9 -9 7 -14 -6 -24
-15 -11 -13 -14 20 -30 37 -17 42 -34 10 -34 -15 0 -15 2 -2 11 12 9 11 10 -8
6 -12 -3 -20 -2 -17 3 3 4 -2 13 -10 20 -14 12 -19 7 -16 -13 1 -5 -3 -5 -10
-2 -7 5 -4 14 9 29 22 24 25 53 6 60 -8 3 -12 -4 -11 -21 1 -18 -3 -27 -16
-28 -9 -2 -15 1 -11 6 3 5 10 7 15 4 10 -7 12 6 3 29 -3 9 -10 13 -15 10 -13
-8 -11 10 4 25 10 11 8 12 -10 7 -20 -6 -22 -4 -19 28 2 20 0 34 -4 31 -4 -3
-11 2 -14 11 -3 8 -10 13 -15 9 -5 -3 -13 -1 -16 5 -5 8 -11 7 -21 -1 -16 -13
-19 2 -3 18 8 8 8 13 0 18 -6 3 -11 3 -10 -2 4 -23 -3 -25 -17 -5 -8 12 -22
22 -30 22 -8 0 -14 5 -14 11 0 5 5 7 12 3 7 -4 8 -3 4 4 -5 9 -13 9 -27 2 -10
-6 -19 -13 -19 -16 0 -3 5 -2 12 2 7 5 8 3 3 -6 -6 -9 -4 -11 6 -5 12 8 12 6
0 -8 -9 -11 -10 -17 -2 -17 6 0 11 5 11 10 0 6 5 10 11 10 5 0 8 -4 4 -9 -3
-5 0 -13 6 -17 8 -4 9 -3 5 4 -4 7 -2 12 4 12 7 0 10 -7 6 -15 -6 -17 20 -34
47 -30 11 2 15 -1 10 -8 -4 -7 1 -6 10 2 11 9 17 10 17 2 0 -6 -6 -11 -12 -11
-9 0 -8 -3 2 -9 8 -6 17 -8 20 -6 4 2 7 -2 7 -10 0 -11 -4 -12 -14 -4 -17 14
-17 -3 0 -20 10 -10 9 -11 -5 -6 -10 4 -18 15 -18 25 0 19 -14 33 -37 36 -7 1
-9 -5 -6 -14 4 -10 2 -13 -5 -8 -7 4 -12 14 -12 22 0 13 -4 12 -32 -1 -29 -14
-31 -14 -14 0 11 8 24 15 29 15 4 0 5 5 2 10 -5 8 -12 7 -23 -2 -12 -10 -14
-10 -8 0 7 11 -5 17 -27 13 -5 -1 -6 3 -3 8 4 5 2 12 -4 16 -6 3 -11 -4 -11
-17 -1 -18 -2 -19 -6 -5 -3 10 2 26 11 36 9 10 13 21 9 24 -3 4 -2 7 3 7 6 0
19 7 30 16 18 15 18 15 -3 5 -27 -14 -33 -14 -33 -1 0 6 8 10 18 10 14 0 15 2
2 10 -9 6 -17 5 -22 -3 -9 -14 -9 -13 -12 36 -1 34 4 42 27 38 5 -1 6 3 2 9
-4 7 -12 7 -25 0 -25 -14 -34 -13 -23 3 14 16 12 46 -1 44 -6 -1 -10 4 -8 12
2 11 0 12 -10 4 -15 -13 -53 8 -40 23 4 4 -1 2 -10 -5 -21 -15 -23 -9 -7 22
10 21 10 21 -5 3 -9 -11 -19 -17 -22 -13 -4 4 -2 12 4 20 15 18 1 39 -18 27
-13 -8 -12 -10 3 -10 14 0 15 -3 6 -18 -12 -19 -39 -26 -39 -10 0 4 5 8 11 8
17 0 1 17 -21 23 -11 3 -18 1 -15 -3 3 -5 1 -11 -4 -14 -11 -7 -23 22 -15 35
3 5 0 9 -6 9 -8 0 -10 -9 -5 -27 6 -26 5 -27 -12 -12 -10 9 -25 19 -33 23 -8
4 -7 1 3 -7 11 -9 14 -18 8 -21 -5 -4 -12 -2 -16 4 -6 10 -40 9 -51 -3 -14
-13 -26 -7 -15 7 9 11 9 16 0 22 -7 4 -9 3 -5 -4 9 -15 -13 -27 -56 -28 -26
-1 -36 2 -31 10 3 6 0 6 -8 -1 -23 -22 -33 -14 -13 10 19 22 19 22 -2 5 -13
-11 -24 -14 -30 -8 -6 6 -15 5 -24 -1 -12 -9 -12 -10 3 -5 12 4 17 2 15 -6 -2
-6 -12 -12 -21 -14 -17 -2 -21 6 -18 36 1 8 -7 2 -16 -15 -10 -16 -24 -31 -30
-33 -18 -3 -16 15 2 22 8 3 15 11 14 18 0 10 -2 10 -6 0 -2 -6 -9 -10 -14 -6
-5 3 -9 0 -9 -6 0 -6 -4 -8 -10 -5 -5 3 -7 0 -4 -8 7 -19 -12 -32 -22 -16 -5
8 -2 10 7 5 8 -4 1 4 -14 18 -15 14 -33 26 -40 26 -7 0 -4 -5 6 -11 14 -8 16
-14 6 -25 -11 -13 -3 -19 23 -16 3 1 9 -5 12 -14 4 -9 2 -12 -5 -8 -6 4 -15 0
-20 -7 -7 -11 -9 -11 -9 -1 0 7 -5 10 -10 7 -6 -4 -7 -11 -4 -17 4 -7 2 -8 -5
-4 -22 14 -63 14 -58 1 3 -6 -1 -12 -9 -12 -7 0 -11 4 -8 9 11 17 12 48 3 48
-6 0 -7 5 -3 12 5 8 11 6 20 -7 7 -10 11 -22 8 -26 -3 -5 -1 -9 5 -9 15 0 23
18 11 25 -5 3 -10 12 -10 18 0 7 4 6 10 -3 9 -13 10 -13 10 0 0 13 1 13 10 0
6 -9 5 -19 -3 -29 -10 -11 -9 -13 3 -9 8 2 15 16 15 31 1 14 -1 24 -3 22 -3
-2 -12 4 -21 13 -9 10 -13 13 -8 8 14 -19 7 -28 -10 -15 -10 8 -14 9 -10 2 9
-15 -32 -14 -52 1 -11 8 -13 8 -8 -1 4 -6 2 -13 -5 -15 -7 -3 -9 -12 -5 -22 4
-9 12 -14 18 -10 8 5 8 9 -1 14 -9 5 -9 9 -1 14 6 4 11 4 12 -1 0 -4 2 -19 5
-33 3 -17 1 -21 -5 -11 -7 10 -12 8 -25 -10 -9 -13 -16 -19 -16 -13 0 5 6 16
13 23 10 11 9 13 -4 8 -12 -4 -15 0 -12 16 3 15 -3 26 -17 35 -12 8 -20 9 -16
4 3 -5 -13 -9 -34 -9 -31 0 -38 3 -29 13 6 7 17 10 25 7 8 -3 14 1 14 8 0 7
-3 9 -7 6 -3 -4 -13 -1 -22 5 -9 7 -13 8 -8 3 4 -4 0 -17 -10 -27 -19 -21 -41
-25 -24 -4 8 10 9 16 1 21 -6 4 -9 1 -8 -6 2 -6 -3 -14 -10 -16 -8 -3 -10 2
-6 14 5 14 4 15 -4 3 -6 -8 -8 -18 -6 -22 3 -4 0 -8 -5 -8 -6 0 -11 5 -11 11
0 6 -6 9 -14 6 -8 -3 -17 1 -20 10 -5 13 -9 13 -22 2 -19 -16 -54 -19 -54 -6
0 17 -10 1 -15 -21 -2 -12 1 -25 7 -28 6 -4 8 -3 5 3 -4 7 6 10 28 8 26 -1 32
1 25 10 -7 9 -5 16 6 26 13 11 15 11 14 -2 -4 -25 0 -39 11 -39 5 0 8 4 4 9
-3 5 0 13 6 17 8 5 9 3 4 -6 -5 -9 -4 -11 3 -6 7 4 12 2 12 -5 0 -9 4 -9 15 1
16 14 38 4 29 -13 -3 -7 2 -3 12 8 13 16 15 16 11 3 -4 -11 1 -19 14 -23 10
-4 19 -11 19 -16 0 -6 -10 -3 -21 5 -12 8 -28 12 -37 9 -11 -5 -14 -2 -9 10 9
23 1 21 -26 -4 -17 -17 -18 -21 -4 -16 23 8 22 0 -2 -13 -20 -10 -24 2 -8 26
4 8 -2 11 -18 10 -20 -1 -24 -5 -19 -21 4 -16 2 -15 -9 4 -10 16 -16 20 -22
12 -4 -7 -13 -10 -21 -7 -8 3 -14 0 -14 -7 0 -7 -3 -8 -8 -2 -10 14 -56 20
-48 6 4 -6 13 -11 21 -11 8 0 16 -4 19 -9 3 -4 -6 -6 -19 -3 -23 4 -29 13 -26
34 0 4 -6 5 -14 1 -13 -4 -13 -8 -3 -21 11 -13 11 -14 -1 -7 -11 6 -13 4 -8
-8 4 -12 2 -14 -11 -10 -15 6 -15 5 -3 -10 12 -16 12 -16 -10 -5 -48 26 -50
28 -38 51 10 21 9 21 -5 3 -11 -13 -12 -23 -6 -31 13 -16 -33 -38 -48 -23 -6
6 -12 6 -17 -1 -3 -6 -3 -11 2 -10 20 3 27 -2 13 -11 -9 -6 -10 -10 -3 -10 6
0 15 5 18 10 3 6 11 10 17 10 7 0 7 -4 -1 -13 -6 -8 -7 -18 -3 -22 4 -5 0 -6
-9 -3 -9 4 -16 1 -17 -5 0 -7 -3 -24 -5 -39 -4 -25 -2 -26 17 -16 20 11 20 11
1 18 -19 7 -19 7 2 14 15 5 20 13 18 27 -2 11 0 17 5 14 5 -3 7 4 5 15 -2 11
0 18 6 15 5 -4 9 0 9 7 0 10 2 10 9 0 4 -8 12 -13 17 -13 5 1 9 -7 10 -17 1
-10 -5 -19 -13 -19 -9 0 -10 4 -3 11 19 19 10 29 -9 12 -11 -10 -17 -24 -14
-32 3 -8 0 -14 -7 -14 -9 0 -9 -4 1 -17 8 -9 9 -14 3 -10 -7 4 -17 0 -23 -7
-9 -11 -9 -16 0 -22 9 -5 7 -11 -7 -21 -16 -12 -17 -15 -4 -23 12 -8 12 -10 1
-10 -10 0 -11 -3 -3 -13 8 -10 6 -13 -8 -13 -13 0 -16 5 -11 16 10 23 7 53 -5
57 -6 2 -11 -7 -11 -19 -1 -44 -4 -63 -10 -50 -4 10 -9 7 -18 -10 -8 -16 -9
-27 -1 -38 8 -12 8 -13 -4 -3 -16 14 -22 55 -7 46 6 -3 7 -1 3 5 -10 17 -23
15 -30 -4 -4 -10 -2 -13 7 -9 6 4 5 1 -4 -7 -16 -13 -19 -19 -19 -40 0 -6 -6
-4 -13 7 -10 12 -16 14 -21 7 -4 -7 -2 -12 3 -12 6 0 11 -5 11 -11 0 -8 -4 -8
-14 0 -10 8 -16 9 -21 1 -3 -5 -1 -10 4 -10 6 0 11 -5 11 -12 0 -6 -7 -4 -18
5 -26 24 -39 21 -17 -3 10 -11 13 -20 7 -20 -7 0 -12 5 -12 11 0 6 -9 1 -19
-12 -17 -20 -22 -22 -33 -10 -11 12 -10 13 4 8 21 -7 38 17 38 52 0 6 9 8 20
6 13 -3 18 0 14 7 -5 7 -2 8 7 3 8 -5 11 -4 6 1 -5 5 -13 10 -18 10 -5 1 -14
2 -20 3 -5 0 -8 5 -5 9 3 5 -2 9 -10 9 -10 0 -11 -4 -4 -11 12 -12 13 -29 1
-22 -5 3 -14 -1 -21 -9 -9 -11 -17 -12 -32 -4 -15 8 -23 8 -32 -2 -8 -9 -8
-10 1 -5 13 7 43 -2 43 -15 0 -4 -8 -6 -17 -3 -15 5 -16 4 -3 -5 8 -6 12 -11
7 -11 -4 0 -1 -13 8 -30 14 -27 14 -29 -2 -23 -16 6 -16 5 -4 -11 8 -9 10 -16
5 -15 -20 4 -31 -2 -31 -16 0 -8 7 -15 15 -15 9 0 13 -2 10 -5 -9 -9 -58 6
-52 16 3 5 11 6 17 2 9 -5 9 -3 0 8 -8 9 -9 20 -3 29 7 10 10 11 10 3 0 -7 4
-13 8 -13 5 0 9 6 9 14 0 7 -7 12 -16 11 -9 -2 -23 -4 -31 -4 -13 -1 -13 -2 0
-11 12 -8 12 -10 -5 -11 l-20 0 20 -9 c22 -9 21 -10 -12 -14 -13 -2 -26 -6
-30 -11 -5 -4 2 -4 14 -1 15 5 24 2 31 -9 5 -9 13 -16 18 -15 5 1 9 -3 11 -10
1 -6 0 -7 -4 0 -7 15 -23 1 -16 -15 3 -10 -1 -15 -12 -15 -17 0 -17 -1 1 -22
10 -13 12 -17 4 -10 -21 18 -34 15 -19 -5 12 -16 12 -17 -2 -5 -9 7 -23 10
-31 7 -9 -4 -15 0 -15 10 0 10 6 13 19 9 17 -5 23 5 19 30 -1 5 4 6 12 3 7 -3
14 1 14 8 0 7 -5 12 -11 11 -6 -2 -8 -1 -3 1 4 3 7 9 7 15 0 7 -5 7 -13 -1 -8
-6 -18 -7 -23 -3 -4 4 -3 0 4 -9 10 -13 9 -19 -2 -29 -9 -6 -20 -9 -25 -6 -6
4 -8 -2 -6 -13 4 -19 -19 -36 -35 -26 -5 3 -12 0 -16 -7 -4 -7 -4 -10 1 -6 4
4 16 -3 26 -15 10 -12 18 -16 19 -9 0 6 -5 12 -12 12 -9 0 -9 3 -1 11 18 18
35 1 22 -22 -7 -15 -7 -24 1 -34 17 -21 -29 -10 -49 11 -12 12 -12 15 -2 9 10
-6 12 -4 6 5 -6 9 -4 11 6 5 12 -7 12 -6 1 6 -11 12 -15 11 -23 -4 -10 -17
-12 -17 -35 -2 -13 8 -24 11 -24 5 0 -5 5 -10 10 -10 6 0 10 -5 10 -11 0 -5
-5 -7 -12 -3 -6 4 -8 3 -5 -3 4 -6 0 -14 -8 -17 -12 -4 -14 0 -9 22 l6 27 -17
-30 c-22 -41 -35 -53 -35 -33 0 9 -3 19 -7 21 -5 3 -9 -20 -10 -51 -2 -42 2
-59 15 -69 9 -8 12 -12 6 -9 -13 6 -54 -21 -54 -36 0 -6 8 -4 18 5 10 10 23
17 28 17 5 0 1 -5 -9 -11 -9 -6 -14 -15 -11 -21 4 -6 3 -8 -3 -5 -13 8 -37
-19 -29 -32 4 -5 0 -16 -8 -24 -17 -17 -11 -28 10 -20 8 3 14 1 14 -5 0 -11
-18 -11 -36 1 -19 11 -25 -5 -7 -18 15 -11 15 -12 -3 -11 -28 2 -66 25 -59 37
4 5 11 9 16 9 6 0 8 -4 4 -9 -3 -5 0 -13 6 -17 8 -5 9 -3 4 6 -6 9 -4 11 5 5
9 -6 11 -4 5 5 -6 9 -4 11 5 5 9 -6 11 -4 5 5 -6 9 -4 11 5 5 9 -6 11 -4 5 5
-5 8 -4 11 3 6 7 -4 10 1 7 14 -2 11 2 20 8 20 7 0 6 4 -3 11 -13 9 -12 10 3
5 11 -3 16 -2 12 4 -9 14 -20 12 -42 -7 -10 -10 -14 -15 -9 -10 19 14 29 7 13
-10 -8 -10 -16 -22 -15 -26 0 -5 -3 -11 -6 -14 -3 -4 -6 2 -6 13 -1 18 -1 18
-11 1 -6 -9 -15 -14 -21 -11 -7 4 -8 2 -4 -4 4 -7 2 -12 -5 -12 -7 0 -4 -7 7
-15 22 -17 12 -20 -17 -4 -11 5 -17 14 -14 19 3 5 1 11 -4 14 -11 7 -9 -12 5
-39 6 -11 9 -26 8 -32 -1 -7 -2 -20 -3 -28 0 -8 -5 -15 -11 -15 -5 0 -7 7 -3
15 6 16 -16 18 -28 2 -7 -10 -39 2 -39 15 0 6 8 4 17 -3 10 -8 14 -9 10 -2 -5
8 -1 11 12 8 15 -3 18 1 14 13 -4 13 -3 14 5 3 5 -7 12 -9 14 -5 3 5 -3 17
-12 27 -13 14 -20 15 -26 6 -4 -8 -3 -10 4 -5 14 8 15 -3 3 -22 -6 -10 -11 -5
-20 17 -7 16 -10 35 -5 42 4 8 3 10 -4 5 -7 -4 -12 -13 -12 -20 0 -20 -27 -40
-35 -26 -3 5 -1 10 5 10 6 0 8 5 5 10 -3 6 -14 10 -23 10 -15 0 -15 -2 -2 -10
10 -6 11 -10 3 -10 -9 0 -7 -6 5 -18 9 -10 20 -14 23 -9 4 5 9 5 13 -1 3 -6 0
-12 -6 -15 -10 -3 -10 -7 1 -20 9 -11 10 -17 2 -17 -6 0 -11 5 -11 10 0 6 -3
9 -7 8 -14 -4 -93 54 -87 63 3 5 -3 9 -13 10 -16 0 -16 1 2 9 11 5 16 9 11 9
-5 1 -3 7 4 15 9 12 8 15 -9 13 -12 -1 -20 -6 -17 -12 2 -7 -2 -12 -10 -12
-12 0 -12 3 0 21 7 12 23 20 34 20 18 -1 20 2 11 17 -5 11 -6 19 -2 19 4 0 -2
7 -13 15 -19 15 -54 21 -40 8 4 -5 13 -8 19 -8 7 -1 11 -6 9 -13 -1 -7 2 -12
8 -12 5 0 10 -5 10 -11 0 -8 -5 -8 -15 1 -10 9 -15 9 -15 1 0 -16 -17 -14 -23
3 -4 11 -1 13 11 9 15 -6 15 -4 4 10 -8 8 -20 13 -28 10 -9 -3 -14 1 -14 13 0
15 2 16 9 5 5 -8 11 -9 15 -3 3 6 2 13 -4 17 -6 4 -8 11 -4 16 3 5 10 7 15 3
5 -3 7 -9 4 -13 -2 -5 7 -6 22 -3 17 3 24 1 19 -6 -3 -6 -2 -13 3 -16 5 -4 8
1 7 10 -3 19 -60 46 -81 38 -8 -4 -15 -1 -15 6 0 6 -5 8 -10 5 -6 -3 -10 -1
-10 4 0 6 -5 10 -11 8 -6 -1 -14 5 -16 13 -4 13 -3 13 6 0 6 -8 11 -13 12 -10
0 3 2 14 4 25 2 11 -1 23 -8 28 -7 5 -3 6 11 2 13 -4 22 -2 22 4 0 6 -3 10 -7
10 -21 -3 -32 3 -38 21 -6 20 -7 20 -25 -2 -11 -13 -19 -18 -20 -12 0 5 5 15
11 21 18 18 -25 37 -53 22 -18 -10 -20 -9 -14 7 4 10 4 15 0 12 -12 -13 -33
16 -22 30 6 7 8 15 4 19 -3 3 -6 1 -6 -5 0 -7 -5 -12 -11 -12 -5 0 -7 6 -3 13
6 9 5 9 -8 0 -8 -7 -19 -9 -23 -5 -5 4 -5 2 -2 -4 7 -12 -40 -11 -51 2 -4 4 1
4 12 0 14 -5 17 -2 12 9 -3 9 -2 14 3 10 5 -3 11 -2 14 2 2 5 2 2 1 -5 -3 -9
1 -10 16 -2 22 12 27 21 9 17 -6 -1 -14 4 -16 11 -3 8 1 10 14 6 10 -3 6 3
-10 13 -15 11 -24 23 -20 27 4 4 -1 4 -12 0 -20 -7 -20 -7 -1 14 11 12 16 25
13 29 -4 3 -7 1 -7 -7 0 -10 -4 -10 -17 1 -9 8 -14 9 -10 3 9 -15 -23 -28 -37
-14 -6 6 -16 4 -30 -8 -16 -13 -18 -13 -8 -1 6 9 10 19 7 22 -3 4 -2 5 2 2 3
-3 12 3 20 13 8 9 11 11 7 3 -5 -9 -3 -12 4 -7 8 5 10 2 6 -8 -4 -9 -1 -16 6
-16 7 0 10 8 7 20 -3 11 -1 23 4 26 5 3 9 11 9 17 0 8 -4 7 -9 -2 -12 -18 -42
-24 -40 -8 3 29 -2 39 -17 33 -12 -5 -14 -1 -10 17 3 12 3 16 0 10 -9 -20 -23
-15 -19 5 2 10 -1 25 -6 33 -8 11 -9 10 -7 -6 2 -14 -3 -20 -17 -20 -25 0 -56
25 -48 38 3 6 1 7 -6 3 -9 -6 -9 -11 1 -24 11 -14 10 -15 -5 -9 -10 4 -21 7
-23 7 -3 0 -3 4 0 8 7 12 -12 38 -21 29 -4 -5 -1 -12 7 -17 13 -9 13 -10 0
-10 -13 0 -13 -1 0 -11 11 -8 9 -9 -10 -4 -20 6 -23 5 -13 -6 14 -14 57 -24
49 -11 -2 4 4 8 14 8 10 0 17 -3 14 -7 -8 -14 8 -38 22 -32 12 4 12 7 -2 18
-15 10 -15 12 -1 12 20 0 28 -19 16 -38 -5 -8 -9 -10 -9 -5 0 5 -8 2 -17 -5
-10 -7 -15 -10 -11 -5 16 19 -11 42 -46 41 -21 -1 -34 2 -33 9 1 6 -4 10 -12
8 -12 -3 -12 -1 0 14 8 9 12 20 11 23 -12 21 -25 28 -45 24 -15 -3 -11 2 13
16 19 11 30 20 25 21 -6 0 -16 9 -23 21 -12 19 -11 20 10 15 13 -3 17 -3 10 0
-10 5 -10 9 0 22 7 10 9 14 4 10 -13 -11 -46 10 -40 26 3 7 -2 16 -11 20 -9 3
-14 2 -11 -3 8 -13 -26 -23 -38 -11 -6 6 -16 4 -30 -8 -16 -13 -18 -13 -8 -1
6 9 10 19 7 22 -3 4 -2 5 2 2 3 -3 12 3 20 13 8 9 11 11 7 3 -5 -9 -3 -12 4
-7 8 5 10 2 6 -8 -4 -9 -1 -16 6 -16 7 0 10 8 7 20 -3 11 -1 23 4 26 5 3 9 11
9 17 0 8 -4 7 -9 -2 -12 -18 -42 -24 -40 -8 3 29 -2 39 -17 33 -12 -5 -14 -1
-10 17 3 12 3 16 0 10 -9 -20 -23 -15 -19 5 2 10 -1 25 -6 33 -8 11 -9 10 -7
-6 2 -14 -3 -20 -17 -20 -22 0 -45 16 -39 27 2 4 0 9 -5 12 -5 4 -12 2 -15 -3
-4 -5 -1 -13 5 -17 8 -4 7 -9 -2 -16 -11 -7 -10 -8 4 -4 10 3 16 2 12 -3 -9
-16 6 -40 21 -34 12 4 12 7 -2 18 -15 10 -15 12 -1 12 20 0 28 -19 16 -38 -5
-8 -9 -10 -9 -5 0 5 -8 2 -17 -5 -10 -7 -15 -10 -11 -5 14 17 -11 43 -37 41
-14 -2 -25 1 -25 7 0 5 8 7 18 4 13 -4 19 -1 19 9 0 8 -4 15 -9 15 -5 0 -7 4
-3 9 7 12 -35 52 -46 45 -5 -3 -6 2 -3 11 6 14 8 14 24 0 14 -13 17 -13 17 -1
0 8 -5 14 -11 13 -6 -1 -10 6 -10 15 1 10 -1 17 -5 16 -18 -5 -47 15 -48 33
-2 17 1 19 10 10 6 -6 15 -11 21 -11 5 0 1 7 -10 15 -10 8 -15 15 -9 15 5 0
-7 11 -27 25 -23 16 -35 31 -32 40 3 7 1 22 -4 31 -9 16 -10 15 -17 -5 -3 -11
-10 -19 -14 -17 -4 3 -8 -4 -8 -15 -2 -26 4 -24 21 9 10 17 15 21 16 11 0 -9
-6 -22 -14 -29 -22 -18 -9 -36 26 -35 17 0 33 -5 35 -10 2 -6 -8 -11 -21 -11
-14 0 -22 4 -20 8 3 4 0 8 -5 8 -6 0 -11 -8 -11 -17 -1 -10 -8 -2 -16 17 -15
33 -16 34 -30 16 -8 -11 -14 -15 -14 -9 0 7 5 15 10 18 6 3 10 11 10 16 0 6
-5 7 -11 4 -6 -4 -5 2 3 14 7 12 17 21 22 21 5 0 -3 9 -17 20 -14 11 -29 20
-34 20 -4 0 -1 -5 7 -10 12 -8 10 -10 -8 -10 -13 0 -21 4 -18 8 2 4 1 14 -4
21 -6 11 -10 9 -19 -8 -7 -12 -8 -20 -4 -19 4 1 17 -3 28 -9 11 -6 28 -9 38
-8 15 3 16 1 6 -11 -8 -10 -15 -12 -22 -5 -7 7 -16 6 -27 -4 -14 -13 -17 -13
-17 0 0 8 4 12 9 9 4 -3 8 -1 8 5 0 5 -4 12 -9 15 -12 8 -33 -19 -23 -29 10
-12 -20 5 -42 24 -18 15 -19 15 -12 -4 4 -11 3 -16 -1 -11 -10 9 -12 56 -2 50
4 -2 9 3 13 11 5 15 -11 31 -21 21 -4 -3 0 -6 8 -6 10 -1 9 -4 -4 -11 -9 -6
-15 -14 -12 -19 3 -5 1 -11 -5 -15 -6 -4 -7 -12 -1 -24 7 -13 6 -18 -4 -18 -7
0 -11 7 -8 14 3 8 2 13 -3 12 -22 -4 -35 2 -28 13 7 11 16 59 11 58 -1 -1 -6
-6 -12 -13z m85 -91 c0 -2 -7 -7 -16 -10 -8 -3 -12 -2 -9 4 6 10 25 14 25 6z
m85 -6 c-3 -5 -1 -10 6 -10 7 0 10 -3 6 -6 -9 -9 -28 6 -22 17 4 5 8 9 11 9 3
0 2 -4 -1 -10z m105 -25 c11 -13 10 -14 -4 -9 -9 3 -16 10 -16 15 0 13 6 11
20 -6z m-40 -55 c0 -5 -2 -10 -4 -10 -3 0 -8 5 -11 10 -3 6 -1 10 4 10 6 0 11
-4 11 -10z m65 0 c-3 -5 0 -10 7 -10 11 0 11 -2 0 -9 -10 -6 -5 -11 17 -21 28
-11 42 -30 23 -30 -4 0 -8 -9 -9 -21 -1 -13 3 -19 11 -16 7 3 20 -3 29 -14 12
-13 13 -19 4 -19 -8 0 -7 -4 3 -11 12 -8 10 -9 -9 -4 -14 4 -21 3 -18 -2 4 -5
0 -10 -8 -10 -11 0 -12 4 -4 13 6 8 6 14 0 18 -5 4 -13 -3 -16 -15 -4 -11 -9
-18 -12 -16 -2 3 1 15 7 27 9 18 8 25 -6 41 -9 10 -21 16 -25 13 -5 -3 -9 0
-9 5 0 14 17 14 25 1 3 -5 12 -10 18 -10 7 1 1 10 -12 20 -14 12 -18 20 -10
20 8 1 -1 9 -19 19 l-33 17 23 11 c30 15 30 15 23 3z m-17 -44 c-2 -1 -12 -8
-23 -16 -18 -14 -19 -13 -8 1 7 9 10 19 6 23 -4 4 1 4 10 0 10 -3 17 -7 15 -8z
m29 -81 c0 -8 -4 -12 -9 -9 -4 3 -8 9 -8 15 0 5 4 9 8 9 5 0 9 -7 9 -15z
m2147 -44 c3 -4 -4 -7 -14 -6 -27 2 -33 10 -10 12 11 1 22 -2 24 -6z m794 -6
c3 -2 11 0 18 6 11 9 15 7 20 -6 5 -13 9 -14 15 -3 7 10 9 9 9 -4 0 -10 -6
-18 -12 -19 -10 0 -10 -2 0 -6 17 -7 15 -20 -3 -20 -8 0 -12 4 -10 8 3 3 -2
12 -10 19 -20 17 -51 -6 -35 -25 8 -10 8 -15 -1 -21 -7 -4 -9 -3 -5 4 3 6 2
13 -3 17 -6 3 -8 11 -5 19 6 15 -25 18 -43 4 -7 -5 -18 -6 -25 -2 -24 15 -59
11 -69 -8 -5 -10 -15 -18 -22 -18 -9 0 -9 2 0 8 13 9 5 26 -15 30 -9 2 -11 -4
-7 -18 4 -12 2 -20 -5 -20 -6 0 -8 5 -5 10 3 6 0 10 -9 10 -8 0 -17 -6 -20
-12 -3 -7 -3 -2 1 12 5 22 4 23 -10 12 -19 -16 -38 -7 -30 14 3 9 10 11 17 6
14 -10 27 -9 45 2 10 6 16 5 19 -3 3 -9 7 -9 17 -1 10 8 15 8 20 -1 6 -8 10
-7 16 2 7 12 9 12 9 0 0 -10 3 -11 14 -2 10 8 16 9 21 1 3 -5 11 -10 16 -10 6
0 7 6 3 13 -6 9 -4 9 8 -1 13 -10 17 -10 21 2 6 14 42 15 55 1z m98 -2 c-1
-11 6 -18 20 -18 11 0 28 -6 36 -12 8 -7 18 -10 21 -6 4 3 7 1 7 -6 0 -7 4
-10 10 -6 5 3 16 -7 25 -22 15 -27 15 -27 9 -3 -6 24 -5 24 12 8 14 -14 15
-20 5 -32 -11 -13 -11 -17 2 -21 8 -4 15 -17 15 -29 0 -18 -6 -23 -26 -23 -21
0 -22 1 -8 9 9 5 14 14 10 20 -5 7 -8 7 -13 0 -4 -7 -12 -8 -21 -2 -12 8 -11
10 5 10 17 0 17 2 5 10 -10 6 -11 10 -2 10 6 0 12 5 12 12 0 6 -3 8 -7 5 -3
-4 -17 0 -30 8 -13 9 -28 13 -34 9 -8 -4 -8 0 0 14 7 14 8 23 1 27 -5 3 -10
-1 -10 -9 0 -8 -4 -17 -9 -20 -5 -4 -7 4 -4 16 3 17 2 19 -5 10 -7 -11 -10
-11 -15 2 -4 9 -13 13 -22 10 -13 -6 -16 10 -6 44 4 11 18 -2 17 -15z m-2850
-2 c-3 -4 3 -16 14 -26 11 -10 20 -15 20 -11 0 4 5 4 10 1 8 -5 8 -11 1 -19
-6 -7 -7 -17 -3 -22 4 -5 -2 -1 -14 9 -13 10 -29 15 -40 11 -14 -4 -15 -3 -6
4 8 5 13 18 12 28 -3 25 -1 34 6 34 3 0 3 -4 0 -9z m2149 -2 c5 9 10 9 21 0
11 -9 14 -9 14 0 0 7 5 9 10 6 6 -3 10 -11 10 -16 0 -6 -5 -7 -12 -3 -7 5 -9
2 -5 -9 4 -12 2 -14 -10 -10 -12 5 -14 3 -8 -8 5 -8 -5 -3 -22 11 -17 14 -28
29 -25 34 2 4 8 3 12 -4 6 -9 9 -9 15 -1z m245 7 c0 -3 -4 -8 -10 -11 -5 -3
-10 -1 -10 4 0 6 5 11 10 11 6 0 10 -2 10 -4z m69 -45 c10 -24 10 -24 -3 -7
-8 10 -22 16 -30 13 -10 -4 -13 -1 -10 7 8 21 32 14 43 -13z m-2591 -6 c-3 -3
-9 2 -12 12 -6 14 -5 15 5 6 7 -7 10 -15 7 -18z m49 3 c-3 -8 -6 -5 -6 6 -1
11 2 17 5 13 3 -3 4 -12 1 -19z m2690 -7 c0 -11 -5 -18 -9 -15 -4 3 -5 11 -1
19 7 21 12 19 10 -4z m47 10 c4 -5 -3 -7 -14 -4 -23 6 -26 13 -6 13 8 0 17 -4
20 -9z m56 1 c0 -4 -10 -9 -22 -9 -18 -2 -20 0 -8 7 18 12 30 13 30 2z m-606
-11 c4 -5 -3 -7 -14 -4 -23 6 -26 13 -6 13 8 0 17 -4 20 -9z m390 -7 c3 -8 2
-12 -4 -9 -6 3 -10 10 -10 16 0 14 7 11 14 -7z m359 2 c4 -10 0 -12 -15 -8
-15 4 -17 7 -6 13 17 11 15 11 21 -5z m-2898 -6 c-3 -5 -12 -10 -18 -10 -7 0
-6 4 3 10 19 12 23 12 15 0z m2195 0 c0 -5 -5 -10 -11 -10 -5 0 -7 5 -4 10 3
6 8 10 11 10 2 0 4 -4 4 -10z m237 -5 c0 -8 -4 -12 -9 -9 -5 3 -6 10 -3 15 9
13 12 11 12 -6z m-536 -18 c-10 -9 -11 -8 -5 6 3 10 9 15 12 12 3 -3 0 -11 -7
-18z m477 -2 c-3 -3 -9 2 -12 12 -6 14 -5 15 5 6 7 -7 10 -15 7 -18z m-2316
-3 c-7 -2 -9 -9 -6 -14 4 -7 2 -8 -4 -4 -6 4 -9 13 -6 21 4 8 11 12 17 8 8 -5
7 -8 -1 -11z m1888 13 c0 -2 -6 -8 -13 -14 -10 -8 -14 -7 -14 2 0 8 6 14 14
14 7 0 13 -1 13 -2z m570 -1 c0 -8 -19 -13 -24 -6 -3 5 1 9 9 9 8 0 15 -2 15
-3z m460 -24 c8 -5 11 -10 5 -10 -5 0 -17 5 -25 10 -8 5 -10 10 -5 10 6 0 17
-5 25 -10z m-2815 -19 c-3 -5 4 -16 15 -24 18 -12 19 -15 5 -21 -14 -5 -14 -8
2 -33 10 -15 13 -24 6 -20 -6 4 -14 3 -18 -3 -3 -5 -11 -10 -18 -10 -6 0 -2 6
9 14 11 8 15 18 10 23 -5 4 -11 2 -13 -4 -3 -7 -9 -13 -14 -13 -6 0 -8 4 -4 9
3 6 -3 14 -12 20 -10 6 -13 11 -7 11 5 0 15 -5 21 -11 9 -9 12 -7 10 10 -1 11
-10 24 -20 27 -18 6 -18 7 4 19 31 17 31 17 24 6z m1735 3 c0 -8 -19 -13 -24
-6 -3 5 1 9 9 9 8 0 15 -2 15 -3z m-1775 -42 c-3 -3 -11 0 -18 7 -9 10 -8 11
6 5 10 -3 15 -9 12 -12z m1712 -4 c-3 -8 -6 -5 -6 6 -1 11 2 17 5 13 3 -3 4
-12 1 -19z m1235 -41 c8 -15 7 -18 -3 -12 -9 6 -11 3 -6 -8 3 -9 1 -19 -5 -23
-6 -4 -8 -3 -4 4 3 5 2 12 -3 14 -5 1 -11 10 -13 18 -2 8 -7 18 -13 22 -5 4 1
6 13 5 13 -1 28 -10 34 -20z m-1247 3 c3 -6 -1 -7 -9 -4 -18 7 -21 14 -7 14 6
0 13 -4 16 -10z m1201 -22 c3 -4 -1 -5 -10 -4 -8 1 -18 5 -22 8 -3 4 1 5 10 4
8 -1 18 -5 22 -8z m-2882 -16 c3 -5 -1 -9 -9 -9 -8 0 -12 4 -9 9 3 4 7 8 9 8
2 0 6 -4 9 -8z m1676 -2 c0 -5 -4 -10 -10 -10 -5 0 -10 5 -10 10 0 6 5 10 10
10 6 0 10 -4 10 -10z m-1630 -57 c-11 -17 -11 -17 -6 0 3 10 6 24 7 30 0 9 2
9 5 0 3 -7 0 -20 -6 -30z m-30 17 c0 -5 -2 -10 -4 -10 -3 0 -8 5 -11 10 -3 6
-1 10 4 10 6 0 11 -4 11 -10z m206 -39 c-3 -4 3 -16 14 -26 11 -10 20 -15 20
-11 0 4 5 4 10 1 8 -5 8 -11 1 -19 -6 -7 -7 -17 -3 -22 4 -5 -2 -1 -14 9 -13
10 -29 15 -40 11 -14 -4 -15 -3 -6 4 8 5 13 18 12 28 -3 25 -1 34 6 34 3 0 3
-4 0 -9z m1185 -42 c-5 -13 -10 -20 -10 -15 -1 5 -9 2 -18 -5 -11 -9 -9 -2 6
19 26 37 36 37 22 1z m209 25 c0 -8 -19 -13 -24 -6 -3 5 1 9 9 9 8 0 15 -2 15
-3z m-1473 -26 c-3 -8 -6 -5 -6 6 -1 11 2 17 5 13 3 -3 4 -12 1 -19z m2917 6
c3 -8 2 -12 -4 -9 -6 3 -10 10 -10 16 0 14 7 11 14 -7z m-1490 -5 c-4 -7 -44
0 -44 7 0 2 11 3 24 2 14 -1 23 -5 20 -9z m-57 -12 c0 -8 -6 -14 -14 -14 -9 0
-10 4 -2 14 6 7 12 13 14 13 1 0 2 -6 2 -13z m-1332 -7 c-3 -5 -12 -10 -18
-10 -7 0 -6 4 3 10 19 12 23 12 15 0z m2855 0 c0 -5 -2 -10 -4 -10 -3 0 -8 5
-11 10 -3 6 -1 10 4 10 6 0 11 -4 11 -10z m-2798 -28 c-7 -2 -9 -9 -6 -14 4
-7 2 -8 -4 -4 -6 4 -9 13 -6 21 4 8 11 12 17 8 8 -5 7 -8 -1 -11z m1194 -7
c-1 -8 -5 -17 -8 -21 -5 -4 -4 16 1 34 3 9 9 -1 7 -13z m1675 -12 c13 -17 13
-17 -6 -3 -11 8 -22 16 -24 17 -2 2 0 3 6 3 6 0 17 -8 24 -17z m-2771 -18
c-10 -12 -8 -17 13 -26 26 -12 27 -39 1 -39 -8 0 -14 -4 -14 -10 0 -5 -5 -10
-11 -10 -5 0 -8 4 -4 9 3 6 -3 14 -12 20 -10 6 -13 11 -7 11 5 0 15 -5 21 -11
9 -9 12 -7 10 10 -1 11 -10 24 -20 27 -18 6 -18 7 4 19 32 17 33 17 19 0z
m-35 -33 c-3 -3 -11 0 -18 7 -9 10 -8 11 6 5 10 -3 15 -9 12 -12z m2935 -3
c11 -19 10 -20 -10 -9 -11 6 -18 15 -15 21 9 13 13 11 25 -12z m-28 -60 c2 -2
1 -3 -1 -2 -2 2 -9 -2 -16 -7 -8 -7 -12 -5 -12 4 0 12 22 16 29 5z m-1874 -25
c0 -17 -3 -22 -8 -13 -5 6 -6 18 -3 26 8 19 11 16 11 -13z m-894 -70 c-2 -13
-1 -23 3 -22 12 2 43 -13 43 -21 0 -4 -6 -8 -14 -8 -8 0 -14 5 -13 11 1 5 -8
10 -20 11 -12 0 -25 4 -30 9 -5 6 -2 6 6 1 11 -6 13 -4 8 7 -3 9 0 21 6 27 15
15 -6 14 -22 -1 -11 -10 -13 -10 -7 0 5 7 1 12 -11 13 -17 1 -17 2 -1 6 14 3
16 9 8 22 -17 32 2 32 26 0 14 -19 21 -40 18 -55z m2796 66 c0 -5 -7 -7 -15
-4 -8 4 -15 8 -15 10 0 2 7 4 15 4 8 0 15 -4 15 -10z m-2855 -10 c3 -5 2 -10
-4 -10 -5 0 -13 5 -16 10 -3 6 -2 10 4 10 5 0 13 -4 16 -10z m-30 -9 c3 -5 2
-12 -3 -15 -5 -3 -9 1 -9 9 0 17 3 19 12 6z m920 -11 c3 -5 1 -10 -4 -10 -6 0
-11 5 -11 10 0 6 2 10 4 10 3 0 8 -4 11 -10z m2119 -32 c-3 -4 1 -6 8 -3 7 3
19 -4 25 -14 10 -16 9 -24 -7 -43 -11 -13 -19 -17 -20 -10 0 6 5 12 10 12 6 0
10 5 10 11 0 6 -9 8 -22 4 -22 -5 -21 -5 2 10 24 16 24 16 3 12 -15 -4 -23 0
-23 9 0 8 -9 19 -20 26 -32 20 -23 29 9 10 16 -9 27 -20 25 -24z m-2890 26
c13 -5 14 -10 5 -20 -18 -22 0 -38 22 -18 10 9 19 13 20 8 0 -5 2 -19 5 -31 3
-16 -1 -23 -11 -23 -8 0 -15 5 -15 11 0 5 4 7 10 4 6 -3 7 1 4 10 -5 13 -9 13
-22 3 -12 -10 -16 -10 -19 0 -3 6 -9 10 -13 7 -5 -3 -14 4 -21 16 -9 17 -8 23
2 30 17 11 14 10 33 3z m-139 -14 c-3 -5 -12 -10 -18 -10 -7 0 -6 4 3 10 19
12 23 12 15 0z m928 -7 c-5 -12 -3 -14 7 -8 9 6 11 4 5 -4 -5 -9 -11 -9 -17
-3 -6 6 -7 15 -4 21 11 17 16 13 9 -6z m1961 9 c3 -5 -1 -9 -9 -9 -8 0 -12 4
-9 9 3 4 7 8 9 8 2 0 6 -4 9 -8z m-1984 -37 c0 -5 -5 -3 -10 5 -5 8 -10 20
-10 25 0 6 5 3 10 -5 5 -8 10 -19 10 -25z m-80 -9 c12 -19 12 -20 -4 -6 -16
13 -20 12 -32 -5 -8 -10 -14 -13 -14 -6 0 7 -5 9 -10 6 -8 -5 -7 -11 1 -21 7
-9 8 -14 1 -14 -6 0 -12 5 -14 12 -2 6 -10 8 -17 4 -9 -6 -8 -12 6 -23 10 -8
13 -12 6 -9 -6 4 -14 0 -16 -6 -3 -8 -6 -6 -6 5 -1 10 -5 16 -11 12 -5 -3 -7
-12 -4 -19 7 -18 -12 -30 -22 -15 -4 8 -3 9 4 5 7 -4 12 -2 12 3 0 6 -4 11 -8
11 -4 0 -8 10 -9 23 0 12 1 16 4 10 3 -7 10 -13 16 -13 5 0 7 3 4 7 -10 9 13
33 27 27 7 -3 20 4 29 14 22 24 41 24 57 -2z m-15 -16 c3 -5 1 -10 -4 -10 -6
0 -11 5 -11 10 0 6 2 10 4 10 3 0 8 -4 11 -10z m42 -15 c0 -8 -4 -12 -9 -9 -5
3 -6 10 -3 15 9 13 12 11 12 -6z m2291 -10 c-3 -3 -9 2 -12 12 -6 14 -5 15 5
6 7 -7 10 -15 7 -18z m-148 1 c-4 -4 -16 -4 -26 2 -16 9 -14 10 8 9 15 -1 23
-6 18 -11z m-2196 -14 c3 -5 -1 -9 -9 -9 -8 0 -12 4 -9 9 3 4 7 8 9 8 2 0 6
-4 9 -8z m-614 -27 c7 -8 17 -12 23 -8 6 4 7 1 3 -6 -6 -9 -13 -8 -29 6 -12
10 -24 19 -26 20 -2 2 0 3 6 3 6 0 16 -7 23 -15z m2937 -1 c-3 -3 -12 -4 -19
-1 -8 3 -5 6 6 6 11 1 17 -2 13 -5z m-2877 -18 c0 -2 -7 -7 -16 -10 -8 -3 -12
-2 -9 4 6 10 25 14 25 6z m2921 -40 c24 22 49 4 45 -34 -3 -26 -36 -46 -36
-22 0 6 -5 8 -11 4 -8 -4 -7 0 1 15 10 20 9 21 -13 17 -21 -4 -23 -1 -18 22 5
26 6 26 9 4 3 -23 4 -23 23 -6z m-51 -10 c0 -3 -4 -8 -10 -11 -5 -3 -10 -1
-10 4 0 6 5 11 10 11 6 0 10 -2 10 -4z m-2443 -51 c0 -8 -4 -12 -9 -9 -4 3 -8
9 -8 15 0 5 4 9 8 9 5 0 9 -7 9 -15z m2493 -10 c0 -2 -6 -5 -13 -8 -8 -3 -14
1 -14 8 0 7 6 11 14 8 7 -3 13 -6 13 -8z m15 -15 c-3 -5 -12 -10 -18 -10 -7 0
-6 4 3 10 19 12 23 12 15 0z m-2485 -6 c0 -8 -19 -13 -24 -6 -3 5 1 9 9 9 8 0
15 -2 15 -3z m2470 -26 c0 -4 -9 -7 -20 -5 -29 5 -33 13 -5 13 14 0 25 -4 25
-8z m25 2 c3 -5 1 -10 -4 -10 -6 0 -11 5 -11 10 0 6 2 10 4 10 3 0 8 -4 11
-10z m-2735 -44 c0 -5 -7 -3 -15 4 -8 7 -12 17 -9 22 7 10 24 -9 24 -26z m122
9 c15 -6 15 -9 3 -21 -18 -18 -31 -18 -16 0 8 10 9 16 1 21 -5 3 -10 1 -10 -4
0 -15 -17 -14 -23 2 -5 14 15 15 45 2z m74 -9 c0 -14 -3 -23 -7 -20 -6 3 -6
22 0 42 3 10 7 -2 7 -22z m-301 -15 c3 -5 0 -13 -6 -17 -7 -4 -9 -3 -5 4 3 5
0 13 -6 15 -9 4 -10 6 -1 6 6 1 14 -3 18 -8z m202 -34 c0 -7 -9 -14 -20 -14
-19 -2 -19 -2 -1 12 11 8 19 15 20 15 0 0 1 -6 1 -13z m-62 -7 c3 -5 1 -10 -4
-10 -6 0 -11 5 -11 10 0 6 2 10 4 10 3 0 8 -4 11 -10z m2697 -55 c3 3 5 -2 5
-10 0 -11 -4 -12 -14 -4 -18 16 -16 4 3 -15 10 -11 11 -16 3 -16 -8 0 -6 -7 5
-19 17 -18 17 -20 -1 -30 -11 -6 -13 -11 -5 -11 8 0 10 -5 5 -12 -11 -19 -12
-38 -2 -38 5 0 1 -8 -10 -19 -10 -10 -21 -25 -23 -32 -3 -8 -9 -10 -14 -6 -5
4 -2 12 5 16 7 5 11 13 7 19 -3 6 -1 16 6 24 13 13 23 48 14 48 -3 0 -12 -12
-20 -27 -8 -16 -15 -23 -16 -17 0 5 11 25 25 44 13 18 21 38 18 43 -4 6 -11 1
-16 -11 -10 -22 -37 -31 -37 -11 0 5 4 8 9 5 5 -3 16 5 25 19 9 13 12 26 7 29
-5 3 -11 15 -14 26 -4 16 -2 18 13 10 9 -5 19 -7 22 -5z m-41 -39 c5 3 9 3 9
0 0 -3 -9 -10 -19 -15 -17 -9 -18 -8 -13 11 3 13 7 17 10 10 2 -7 8 -10 13 -6z
m-1 -251 c0 -2 -6 -5 -13 -8 -8 -3 -14 1 -14 8 0 7 6 11 14 8 7 -3 13 -6 13
-8z m58 -25 c-9 -13 -14 -16 -20 -7 -4 6 -2 15 5 19 21 14 28 9 15 -12z m-97
-17 c13 -16 12 -17 -3 -4 -17 13 -22 21 -14 21 2 0 10 -8 17 -17z m32 -40 c-3
-7 -6 -13 -8 -13 -2 0 -5 6 -8 13 -3 8 1 14 8 14 7 0 11 -6 8 -14z m79 -35
c-1 -4 7 -22 18 -40 11 -18 20 -29 20 -24 0 5 9 1 20 -9 12 -11 20 -13 20 -6
0 7 5 9 12 5 9 -6 9 -9 -1 -12 -9 -3 -8 -7 4 -16 15 -11 15 -13 -2 -26 -10 -8
-15 -11 -11 -6 4 5 3 17 -3 28 -9 16 -13 17 -27 6 -9 -7 -13 -8 -10 -3 3 6 0
16 -8 23 -8 7 -14 8 -14 2 0 -5 -5 -10 -12 -10 -9 0 -9 3 0 12 18 18 14 32 -5
17 -11 -10 -14 -10 -9 -1 4 7 2 12 -4 12 -6 0 -8 5 -5 10 3 6 -2 10 -13 10
-25 0 -34 10 -21 26 7 8 7 14 -1 19 -5 3 -10 11 -10 16 0 6 4 8 8 5 4 -2 14
-1 22 4 11 7 17 3 24 -13 5 -12 8 -25 8 -29z m-62 6 c0 -8 -19 -13 -24 -6 -3
5 1 9 9 9 8 0 15 -2 15 -3z m15 -64 c3 -5 1 -10 -4 -10 -6 0 -11 5 -11 10 0 6
2 10 4 10 3 0 8 -4 11 -10z m29 -16 c3 -8 2 -12 -4 -9 -6 3 -10 10 -10 16 0
14 7 11 14 -7z m86 -42 c0 -4 -9 -13 -20 -19 -14 -9 -21 -10 -26 -1 -4 6 -3 8
3 5 6 -4 16 0 23 8 14 17 20 19 20 7z m170 -17 c12 -15 4 -16 -38 -6 -7 2 10
21 17 21 5 0 14 -7 21 -15z m65 -134 c3 -5 2 -12 -3 -15 -5 -3 -9 1 -9 9 0 17
3 19 12 6z m-145 -131 c0 -5 -5 -10 -11 -10 -5 0 -7 5 -4 10 3 6 8 10 11 10 2
0 4 -4 4 -10z m90 -4 c0 -2 -8 -10 -17 -17 -16 -13 -17 -12 -4 4 13 16 21 21
21 13z m-130 -16 c0 -5 -2 -10 -4 -10 -3 0 -8 5 -11 10 -3 6 -1 10 4 10 6 0
11 -4 11 -10z m-120 -40 c0 -5 -5 -10 -11 -10 -5 0 -7 5 -4 10 3 6 8 10 11 10
2 0 4 -4 4 -10z m-50 -99 c0 -5 -7 -12 -16 -15 -14 -5 -15 -4 -4 9 14 17 20
19 20 6z m24 -40 c9 -10 14 -25 10 -35 -6 -15 -12 -18 -30 -15 -8 1 -24 -23
-24 -36 0 -5 4 -4 9 4 6 9 11 10 15 2 4 -6 2 -11 -4 -11 -7 0 -9 -7 -6 -16 3
-9 2 -12 -5 -9 -5 4 -18 1 -27 -7 -15 -12 -16 -11 -3 5 17 22 21 79 6 89 -6 5
-6 8 2 8 7 0 10 7 7 18 -5 14 -4 14 4 2 6 -8 8 -18 5 -23 -3 -5 0 -8 8 -5 17
6 19 30 4 40 -7 5 -6 8 1 8 6 0 18 -8 28 -19z m-157 -76 c0 -8 -4 -12 -9 -9
-5 3 -6 10 -3 15 9 13 12 11 12 -6z m63 -6 c0 -4 -11 -6 -24 -5 -13 0 -22 4
-20 8 6 9 44 6 44 -3z m-379 -16 c13 -16 12 -17 -3 -4 -17 13 -22 21 -14 21 2
0 10 -8 17 -17z m-74 -23 c-14 -24 -24 -26 -24 -6 0 8 5 14 11 13 6 -1 10 4 8
11 -1 8 2 11 8 7 6 -4 5 -13 -3 -25z m211 18 c-2 -7 3 -12 11 -10 8 2 11 -3 8
-11 -8 -21 26 -47 40 -31 7 6 9 16 5 20 -4 5 2 2 13 -6 11 -8 22 -15 24 -17 1
-1 0 -7 -4 -13 -5 -8 -10 -8 -20 0 -10 8 -15 8 -20 0 -5 -8 -10 -8 -20 0 -9 8
-15 8 -20 0 -11 -18 -24 -1 -19 25 2 13 0 27 -6 30 -6 4 -8 11 -5 16 9 13 15
11 13 -3z m95 -13 c-7 -21 -12 -19 -10 4 0 11 5 18 9 15 4 -3 5 -11 1 -19z
m98 -4 c-6 -10 -9 -27 -7 -38 3 -12 -1 -20 -10 -20 -8 0 -14 5 -14 10 0 6 -10
2 -22 -9 -13 -10 -20 -15 -16 -10 4 5 3 15 -3 23 -9 10 -8 13 0 13 7 0 9 5 5
13 -5 7 0 6 11 -3 16 -14 20 -12 38 13 24 31 32 35 18 8z m-26 -1 c-3 -5 -12
-10 -18 -10 -7 0 -6 4 3 10 19 12 23 12 15 0z m-289 -47 c-3 -4 -6 0 -6 8 0 8
-3 10 -8 4 -4 -5 -16 -17 -27 -25 l-20 -15 20 24 c11 13 19 25 18 27 -12 18 1
23 13 6 9 -13 13 -26 10 -29z m358 1 c3 -8 2 -12 -4 -9 -6 3 -10 10 -10 16 0
14 7 11 14 -7z m-279 -12 c-3 -3 -11 0 -18 7 -9 10 -8 11 6 5 10 -3 15 -9 12
-12z m-255 4 c0 -2 -7 -7 -16 -10 -8 -3 -12 -2 -9 4 6 10 25 14 25 6z m-40
-111 c0 -8 -2 -15 -4 -15 -2 0 -6 7 -10 15 -3 8 -1 15 4 15 6 0 10 -7 10 -15z
m-35 -115 c-3 -5 -12 -10 -18 -10 -7 0 -6 4 3 10 19 12 23 12 15 0z m80 0 c3
-5 -1 -10 -10 -10 -9 0 -13 5 -10 10 3 6 8 10 10 10 2 0 7 -4 10 -10z m-5
-114 c0 -3 -4 -8 -10 -11 -5 -3 -10 -1 -10 4 0 6 5 11 10 11 6 0 10 -2 10 -4z
m-83 -51 c0 -8 -4 -12 -9 -9 -5 3 -6 10 -3 15 9 13 12 11 12 -6z m53 -157 c0
-4 -4 -8 -9 -8 -6 0 -12 4 -15 8 -3 5 1 9 9 9 8 0 15 -4 15 -9z m60 -74 c0 -8
-19 -13 -24 -6 -3 5 1 9 9 9 8 0 15 -2 15 -3z m84 -30 c20 -8 21 -21 1 -21 -8
0 -12 4 -9 8 2 4 -2 10 -8 12 -7 3 -10 6 -6 6 3 1 13 -2 22 -5z m211 -74 c-3
-5 -11 -10 -16 -10 -6 0 -7 5 -4 10 3 6 11 10 16 10 6 0 7 -4 4 -10z m-67 -55
c-3 -3 -9 2 -12 12 -6 14 -5 15 5 6 7 -7 10 -15 7 -18z m92 0 c0 -12 -19 -12
-23 0 -4 9 -1 12 9 8 7 -3 14 -7 14 -8z m-7 -99 c3 -8 -1 -20 -9 -27 -12 -10
-14 -8 -10 12 6 30 5 29 10 29 2 0 6 -6 9 -14z m-63 -30 c0 -8 -7 -16 -15 -20
-12 -4 -13 -2 -2 14 14 24 17 25 17 6z m45 -45 c3 -5 2 -12 -3 -15 -5 -3 -9 1
-9 9 0 17 3 19 12 6z m-45 -48 c0 -5 -5 -15 -10 -23 -7 -12 -9 -10 -7 8 1 19
17 33 17 15z m60 -142 c0 -6 -4 -12 -8 -15 -5 -3 -9 1 -9 9 0 8 4 15 9 15 4 0
8 -4 8 -9z m-7 -131 c10 -12 9 -12 -4 -2 -9 6 -18 9 -21 6 -3 -3 -9 -1 -12 4
-9 15 22 8 37 -8z m347 11 c0 -10 19 -9 37 2 9 6 11 3 7 -8 -4 -9 -12 -14 -20
-11 -16 6 -38 -19 -29 -34 3 -5 1 -10 -4 -10 -15 0 -14 23 1 38 9 9 9 12 0 12
-7 0 -12 5 -12 10 0 6 5 10 10 10 6 0 10 -4 10 -9z m-230 -35 c0 -2 -9 -6 -20
-9 -11 -3 -18 -1 -14 4 5 9 34 13 34 5z m267 -2 c-3 -3 -12 -4 -19 -1 -8 3 -5
6 6 6 11 1 17 -2 13 -5z m53 -8 c0 -2 -7 -7 -16 -10 -8 -3 -12 -2 -9 4 6 10
25 14 25 6z m-325 -16 c-3 -5 -12 -10 -18 -10 -7 0 -6 4 3 10 19 12 23 12 15
0z m355 0 c0 -5 -2 -10 -4 -10 -3 0 -8 5 -11 10 -3 6 -1 10 4 10 6 0 11 -4 11
-10z m140 -25 c0 -12 -19 -12 -23 0 -4 9 -1 12 9 8 7 -3 14 -7 14 -8z m-6
-133 c2 -4 -5 -9 -17 -9 -17 -2 -19 0 -7 7 18 12 18 12 24 2z m-3529 -22 c3
-6 -1 -7 -9 -4 -18 7 -21 14 -7 14 6 0 13 -4 16 -10z m125 6 c0 -2 -8 -10 -17
-17 -16 -13 -17 -12 -4 4 13 16 21 21 21 13z m75 -6 c-3 -5 -12 -10 -18 -10
-7 0 -6 4 3 10 19 12 23 12 15 0z m70 2 c-3 -3 0 -11 6 -19 17 -20 5 -16 -14
5 -15 16 -15 19 -2 19 8 0 13 -3 10 -5z m240 -10 c-3 -3 -11 0 -18 7 -9 10 -8
11 6 5 10 -3 15 -9 12 -12z m221 6 c4 -7 4 -10 -1 -6 -4 4 -15 2 -24 -5 -14
-11 -14 -10 -2 6 16 20 18 21 27 5z m75 -5 c13 -16 12 -17 -3 -4 -17 13 -22
21 -14 21 2 0 10 -8 17 -17z m2818 -7 c7 -8 8 -17 3 -20 -6 -3 -12 3 -15 14
-6 24 -4 25 12 6z m-3772 -2 c-8 -8 -48 -13 -43 -6 2 4 14 8 26 9 12 1 20 0
17 -3z m107 -8 c-3 -9 -12 -12 -22 -9 -15 6 -9 11 25 22 1 1 0 -5 -3 -13z
m200 6 c2 -4 -4 -8 -14 -8 -10 0 -16 4 -14 8 3 4 9 8 14 8 5 0 11 -4 14 -8z
m-258 -18 c-21 -15 -8 -26 15 -13 15 8 17 6 12 -8 -6 -16 -5 -16 10 -4 9 7 17
10 17 5 1 -5 7 2 16 16 15 25 15 25 8 1 -4 -16 -3 -21 5 -17 6 4 11 2 11 -4 0
-6 5 -8 10 -5 7 4 6 14 -1 28 -9 20 -9 20 4 5 9 -12 17 -14 24 -7 6 6 18 6 34
0 17 -7 19 -10 7 -10 -10 -1 -18 -5 -18 -10 0 -5 8 -8 18 -6 22 3 34 -4 26
-16 -4 -6 -11 -6 -20 2 -11 9 -14 8 -14 -2 0 -12 -2 -12 -9 0 -6 9 -10 10 -16
2 -5 -9 -10 -9 -21 0 -11 9 -14 8 -14 -2 0 -11 -2 -11 -9 0 -8 12 -12 12 -24
2 -11 -8 -17 -9 -22 -1 -5 8 -11 8 -21 -1 -8 -6 -14 -9 -14 -5 0 4 -11 -1 -24
-9 -16 -11 -26 -13 -31 -6 -3 6 -1 11 6 11 7 0 5 8 -6 20 -15 16 -16 23 -6 33
10 9 11 9 6 -4 -7 -19 20 -46 30 -29 3 5 2 10 -4 10 -5 0 -9 8 -8 18 0 10 9
18 20 18 16 0 16 -2 3 -12z m652 7 c11 -7 10 -9 -3 -14 -9 -4 -14 -3 -10 2 3
5 -1 12 -7 14 -7 3 -8 6 -3 6 6 0 16 -3 23 -8z m3023 -14 c-10 -9 -11 -8 -5 6
3 10 9 15 12 12 3 -3 0 -11 -7 -18z m-3785 1 c3 -4 -1 -5 -10 -4 -8 1 -18 5
-22 8 -3 4 1 5 10 4 8 -1 18 -5 22 -8z m319 3 c-7 -13 25 -31 55 -31 6 0 10
-4 10 -9 0 -10 -19 -9 -37 2 -8 5 -13 3 -13 -5 0 -7 -7 0 -15 16 -18 34 -18
36 -4 36 5 0 8 -4 4 -9z m205 5 c0 -3 -4 -8 -10 -11 -5 -3 -10 -1 -10 4 0 6 5
11 10 11 6 0 10 -2 10 -4z m174 -11 c-4 -8 -8 -15 -10 -15 -2 0 -4 7 -4 15 0
8 4 15 10 15 5 0 7 -7 4 -15z m315 -1 c-12 -15 -11 -16 9 -10 15 5 22 3 22 -5
0 -7 3 -9 7 -6 3 4 17 -3 30 -15 13 -12 23 -17 23 -10 0 6 -11 19 -25 30 -29
23 -31 29 -11 29 8 0 15 -3 14 -6 -2 -18 4 -21 20 -12 14 7 19 6 19 -4 0 -8
-7 -11 -16 -7 -11 4 -9 -2 7 -22 25 -32 19 -56 -7 -32 -12 11 -20 13 -28 5 -8
-8 -17 -5 -33 11 -16 16 -24 19 -35 10 -10 -8 -19 -8 -34 0 -12 6 -21 13 -21
16 0 3 4 3 9 0 4 -3 19 6 31 19 26 28 40 34 19 9z m2831 -8 c0 -3 -4 -8 -10
-11 -5 -3 -10 -1 -10 4 0 6 5 11 10 11 6 0 10 -2 10 -4z m-3872 -17 c-2 -6 -7
-10 -12 -9 -5 1 -13 -4 -18 -12 -8 -10 -9 -10 -5 2 2 8 10 14 16 13 6 -2 11 2
11 7 0 6 3 10 6 10 3 0 4 -5 2 -11z m476 -15 c3 -8 2 -12 -4 -9 -6 3 -10 10
-10 16 0 14 7 11 14 -7z m476 7 c0 -4 -9 -12 -20 -19 -21 -13 -23 -12 -15 11
6 13 35 20 35 8z m260 -6 c-5 -7 -9 -14 -7 -16 1 -2 0 -3 -2 -1 -11 7 -7 29 5
29 9 0 11 -4 4 -12z m60 9 c0 -8 -19 -13 -24 -6 -3 5 1 9 9 9 8 0 15 -2 15 -3z
m2657 -46 c-3 -8 -6 -5 -6 6 -1 11 2 17 5 13 3 -3 4 -12 1 -19z m-2703 -3 c-5
-11 -1 -14 12 -9 16 5 16 4 4 -5 -17 -12 -36 1 -26 18 10 16 16 13 10 -4z
m2686 9 c0 -8 -19 -13 -24 -6 -3 5 1 9 9 9 8 0 15 -2 15 -3z m-3875 -25 c0 -8
-5 -13 -12 -12 -6 2 -14 -6 -18 -16 -5 -18 -35 -24 -36 -8 -2 23 12 32 56 36
6 1 3 6 -5 12 -13 9 -13 10 0 6 8 -2 15 -10 15 -18z m4027 14 c-8 -3 -4 -11
13 -25 14 -11 23 -24 20 -29 -4 -5 -2 -9 3 -9 6 0 13 -7 16 -16 5 -13 4 -14
-7 -6 -8 7 -16 10 -19 7 -3 -3 -11 1 -17 9 -7 8 -20 12 -29 9 -11 -3 -8 3 8
17 17 15 19 20 8 16 -28 -9 -44 -13 -35 -9 4 3 5 9 2 14 -4 5 2 6 12 2 15 -6
16 -4 6 8 -10 12 -8 15 10 16 12 0 16 -1 9 -4z m-4110 -21 c-7 -2 -9 -9 -5
-15 3 -7 2 -8 -2 -4 -16 14 -14 36 3 29 10 -4 12 -7 4 -10z m1295 -17 c0 -8
-4 -12 -9 -9 -5 3 -6 10 -3 15 9 13 12 11 12 -6z m-1321 -7 c5 4 5 3 1 -2 -12
-15 -34 -15 -34 0 0 9 4 11 12 4 7 -5 16 -6 21 -2z m1359 -16 c-3 -3 -11 0
-18 7 -9 10 -8 11 6 5 10 -3 15 -9 12 -12z m2756 -55 c-10 -9 -11 -8 -5 6 3
10 9 15 12 12 3 -3 0 -11 -7 -18z m-2745 1 c4 -7 3 -8 -4 -4 -7 4 -12 2 -12
-5 0 -7 -3 -10 -6 -6 -6 5 3 27 11 27 2 0 7 -5 11 -12z m-41 -18 c-3 -5 -3
-10 2 -10 4 0 13 -11 20 -25 6 -14 7 -23 2 -19 -5 3 -9 0 -9 -5 0 -19 28 -12
44 11 9 12 16 18 16 12 0 -5 -5 -15 -11 -21 -8 -8 -7 -17 5 -35 19 -27 18 -27
39 -10 17 15 37 8 37 -11 0 -7 -4 -6 -10 3 -5 8 -12 11 -16 7 -4 -3 -1 -13 5
-21 8 -9 8 -16 2 -20 -5 -4 -16 3 -24 15 -10 14 -17 17 -22 9 -5 -8 -22 2 -51
31 -24 23 -41 46 -38 50 2 4 0 11 -6 14 -8 5 -7 11 1 21 13 16 23 19 14 4z
m-1385 -4 c0 -2 -8 -10 -17 -17 -16 -13 -17 -12 -4 4 13 16 21 21 21 13z
m1440 -21 c0 -12 -19 -12 -23 0 -4 9 -1 12 9 8 7 -3 14 -7 14 -8z m2820 5 c0
-5 -5 -10 -11 -10 -5 0 -7 5 -4 10 3 6 8 10 11 10 2 0 4 -4 4 -10z m-94 -47
c-4 -4 -12 -1 -19 7 -9 10 -9 11 1 6 7 -4 12 -2 13 6 0 11 2 11 6 0 3 -7 2
-16 -1 -19z m-2677 3 c9 -11 9 -16 0 -22 -7 -4 -9 -3 -5 4 3 6 2 13 -4 17 -5
3 -10 1 -10 -6 0 -7 -3 -10 -6 -6 -5 5 3 27 10 27 2 0 9 -6 15 -14z m-1576
-31 c-7 -21 -12 -19 -10 4 0 11 5 18 9 15 4 -3 5 -11 1 -19z m3744 10 c0 -8
-4 -12 -9 -9 -5 3 -6 10 -3 15 9 13 12 11 12 -6z m63 7 c0 -5 -7 -9 -15 -9 -8
0 -12 4 -9 9 3 4 9 8 15 8 5 0 9 -4 9 -8z m157 -7 c0 -8 -4 -12 -9 -9 -5 3 -6
10 -3 15 9 13 12 11 12 -6z m-42 -28 c-11 -6 -21 -5 -28 3 -9 8 -7 9 7 4 13
-5 17 -4 12 4 -5 8 -2 10 10 5 15 -6 15 -7 -1 -16z m80 13 c-3 -5 -12 -10 -18
-10 -7 0 -6 4 3 10 19 12 23 12 15 0z m140 -21 c-4 -5 -12 -9 -18 -8 -9 0 -8
2 1 6 6 2 9 10 6 15 -4 7 -2 8 5 4 6 -4 9 -12 6 -17z m-2435 7 c0 -2 -7 -7
-16 -10 -8 -3 -12 -2 -9 4 6 10 25 14 25 6z m2260 -7 c0 -5 -5 -7 -12 -3 -8 5
-9 2 -5 -9 8 -22 -8 -31 -22 -13 -10 11 -8 17 6 25 23 13 33 14 33 0z m-4105
-9 c-3 -5 -1 -10 6 -10 7 0 10 -3 6 -6 -9 -9 -28 6 -22 17 4 5 8 9 11 9 3 0 2
-4 -1 -10z m3901 -5 c-5 -15 26 -40 37 -29 3 3 3 -3 0 -15 -3 -11 -9 -18 -15
-15 -5 3 -15 0 -23 -6 -8 -7 -15 -9 -15 -5 0 4 -6 2 -14 -5 -8 -6 -12 -19 -9
-28 5 -14 3 -14 -9 1 -13 17 -14 17 -12 -10 1 -15 3 -28 4 -28 1 0 4 -10 5
-21 1 -14 -3 -21 -14 -20 -10 1 -15 -6 -13 -16 2 -10 -3 -18 -10 -18 -9 0 -9
-3 2 -10 10 -6 11 -10 3 -10 -7 0 -13 -5 -13 -11 0 -5 6 -7 13 -3 9 6 9 4 -1
-8 -10 -13 -10 -17 0 -20 10 -4 10 -8 -1 -21 -13 -17 -36 -14 -26 3 3 5 -11 7
-30 6 -20 -2 -33 -1 -30 3 4 3 15 7 26 7 33 2 36 4 36 17 0 6 2 18 4 26 2 7
-2 16 -10 19 -8 3 -11 0 -7 -7 5 -7 1 -9 -10 -4 -15 5 -15 7 2 17 23 13 25 53
4 66 -8 5 -10 10 -4 10 5 0 16 -6 23 -12 11 -11 12 -9 7 9 -6 17 3 32 38 67
24 25 47 55 51 66 3 11 9 20 12 20 3 0 3 -7 -1 -15z m-76 -5 c0 -5 -5 -10 -11
-10 -5 0 -7 5 -4 10 3 6 8 10 11 10 2 0 4 -4 4 -10z m45 -11 c-4 -5 -12 -9
-18 -8 -9 0 -8 2 1 6 6 2 9 10 6 15 -4 7 -2 8 5 4 6 -4 9 -12 6 -17z m-33 -40
c-21 -24 -26 -24 -13 0 6 10 7 21 3 25 -3 4 1 4 10 1 15 -6 15 -8 0 -26z
m-3752 11 c0 -5 -5 -10 -11 -10 -5 0 -7 5 -4 10 3 6 8 10 11 10 2 0 4 -4 4
-10z m1833 -10 c3 -11 1 -18 -4 -14 -5 3 -9 12 -9 20 0 20 7 17 13 -6z m31 12
c3 -5 -1 -9 -9 -9 -8 0 -12 4 -9 9 3 4 7 8 9 8 2 0 6 -4 9 -8z m1852 -41 c-9
-14 -26 -14 -26 0 0 5 5 7 12 3 8 -5 9 -1 4 12 -5 14 -4 16 5 7 6 -6 8 -16 5
-22z m-3876 -1 c0 -5 -2 -10 -4 -10 -3 0 -8 5 -11 10 -3 6 -1 10 4 10 6 0 11
-4 11 -10z m2 -102 c-8 -8 -9 -4 -5 13 4 13 8 18 11 10 2 -7 -1 -18 -6 -23z
m3846 11 c3 -12 2 -12 -6 0 -6 8 -15 10 -22 6 -9 -5 -11 -4 -6 4 10 15 28 10
34 -10z m-1818 -15 c0 -2 -7 -4 -15 -4 -8 0 -15 4 -15 10 0 5 7 7 15 4 8 -4
15 -8 15 -10z m-2 -28 c-2 -1 -12 -8 -22 -16 -13 -10 -17 -10 -12 -2 4 7 2 12
-6 12 -10 0 -10 2 1 9 8 5 20 7 28 4 8 -3 13 -6 11 -7z m1821 -39 c0 -9 -2 -8
-6 1 -2 6 -10 9 -15 6 -7 -4 -8 -2 -4 5 9 13 26 5 25 -12z"/>
<path d="M335 4600 c3 -5 8 -10 11 -10 2 0 4 5 4 10 0 6 -5 10 -11 10 -5 0 -7
-4 -4 -10z"/>
<path d="M365 4541 c-6 -11 13 -26 22 -17 4 3 1 6 -6 6 -7 0 -9 5 -6 10 3 6 4
10 1 10 -3 0 -7 -4 -11 -9z"/>
<path d="M3224 4483 c4 -4 16 -8 28 -10 12 -2 19 -1 16 2 -3 3 -16 8 -28 10
-12 2 -20 1 -16 -2z"/>
<path d="M3290 4481 c0 -6 4 -13 10 -16 6 -3 7 1 4 9 -7 18 -14 21 -14 7z"/>
<path d="M3443 4415 c6 -7 15 -11 20 -8 4 2 7 -1 7 -8 0 -7 2 -10 5 -7 11 10
-6 34 -25 35 -16 1 -17 -1 -7 -12z"/>
<path d="M3490 4366 c0 -2 8 -10 18 -17 15 -13 16 -12 3 4 -13 16 -21 21 -21
13z"/>
<path d="M520 4447 c0 -2 6 -10 14 -16 11 -9 16 -9 22 1 4 7 4 10 -1 6 -4 -4
-14 -3 -22 3 -7 6 -13 9 -13 6z"/>
<path d="M2666 4471 c-4 -5 -2 -12 3 -15 5 -4 12 -2 15 3 4 5 2 12 -3 15 -5 4
-12 2 -15 -3z"/>
<path d="M629 4337 c6 -8 7 -18 3 -22 -4 -5 -1 -5 6 -1 10 6 10 11 1 22 -6 8
-14 14 -16 14 -3 0 0 -6 6 -13z"/>
<path d="M3515 4280 c-3 -5 -1 -10 4 -10 6 0 11 5 11 10 0 6 -2 10 -4 10 -3 0
-8 -4 -11 -10z"/>
<path d="M840 4127 c0 -2 6 -10 14 -16 11 -9 16 -9 22 1 4 7 4 10 -1 6 -4 -4
-14 -3 -22 3 -7 6 -13 9 -13 6z"/>
<path d="M955 3990 c3 -5 8 -10 11 -10 2 0 4 5 4 10 0 6 -5 10 -11 10 -5 0 -7
-4 -4 -10z"/>
<path d="M1023 3885 c0 -8 4 -12 9 -9 5 3 6 10 3 15 -9 13 -12 11 -12 -6z"/>
<path d="M1100 3861 c0 -7 -4 -9 -10 -6 -6 4 -7 -1 -3 -11 6 -15 7 -15 15 1 6
9 7 19 4 22 -3 4 -6 1 -6 -6z"/>
<path d="M4150 3671 c0 -6 6 -11 13 -11 9 0 8 -3 -2 -9 -15 -10 -7 -31 12 -30
8 0 8 2 -1 6 -9 3 -10 9 -2 18 7 9 6 16 -5 25 -10 9 -15 9 -15 1z"/>
<path d="M4153 3016 c3 -7 0 -19 -6 -25 -8 -8 -7 -11 4 -11 24 0 40 21 28 37
-15 17 -33 17 -26 -1z m22 -5 c3 -5 2 -12 -3 -15 -5 -3 -9 1 -9 9 0 17 3 19
12 6z"/>
<path d="M4186 2967 c3 -10 9 -15 12 -12 3 3 0 11 -7 18 -10 9 -11 8 -5 -6z"/>
<path d="M4154 2393 c3 -6 2 -14 -4 -18 -5 -3 -10 -11 -10 -16 0 -6 7 -3 16 6
14 13 14 19 4 28 -10 9 -11 9 -6 0z"/>
<path d="M3833 2245 c0 -8 4 -12 9 -9 5 3 6 10 3 15 -9 13 -12 11 -12 -6z"/>
<path d="M961 666 c-8 -9 -8 -16 -2 -20 6 -4 15 3 21 14 12 23 -2 27 -19 6z"/>
<path d="M829 643 c-12 -16 -12 -17 2 -6 9 7 20 9 24 5 5 -4 5 -1 1 6 -9 16
-11 15 -27 -5z"/>
<path d="M886 648 c3 -5 10 -6 15 -3 13 9 11 12 -6 12 -8 0 -12 -4 -9 -9z"/>
<path d="M1716 651 c-4 -5 -2 -12 3 -15 5 -4 12 -2 15 3 4 5 2 12 -3 15 -5 4
-12 2 -15 -3z"/>
<path d="M1750 654 c1 -14 48 -45 54 -35 3 5 -1 14 -9 21 -8 7 -15 9 -15 5 0
-4 -7 -2 -15 5 -8 7 -15 9 -15 4z"/>
<path d="M4766 552 c-3 -5 1 -15 8 -21 11 -10 14 -9 12 3 -3 21 -13 29 -20 18z"/>
<path d="M2007 360 c10 -11 19 -20 21 -20 1 0 -2 9 -8 20 -6 11 -15 20 -20 20
-6 0 -2 -9 7 -20z"/>
<path d="M4210 268 c-22 -31 -22 -32 -2 -14 12 11 22 16 22 11 0 -4 7 -2 15 5
14 12 12 30 -4 30 -4 0 -18 -15 -31 -32z m40 18 c0 -3 -4 -8 -10 -11 -5 -3
-10 -1 -10 4 0 6 5 11 10 11 6 0 10 -2 10 -4z"/>
<path d="M4163 223 c-16 -6 -17 -33 -2 -33 8 0 7 -5 -1 -15 -15 -18 -22 -68
-9 -59 5 3 7 10 3 15 -3 6 4 17 15 26 17 12 19 18 10 29 -6 7 -9 21 -5 29 3 8
4 15 3 14 -1 0 -8 -3 -14 -6z"/>
<path d="M4143 35 c0 -8 4 -12 9 -9 5 3 6 10 3 15 -9 13 -12 11 -12 -6z"/>
<path d="M132 4835 c-41 -22 -46 -32 -28 -50 24 -24 42 -8 19 18 -15 16 -15
19 -2 15 9 -4 20 2 27 13 7 10 11 19 10 18 -2 -1 -14 -7 -26 -14z m-11 -42
c13 -16 12 -17 -3 -4 -10 7 -18 15 -18 17 0 8 8 3 21 -13z"/>
<path d="M176 4837 c3 -10 9 -15 12 -12 3 3 0 11 -7 18 -10 9 -11 8 -5 -6z"/>
<path d="M43 4828 c-4 -7 -9 -21 -10 -32 -3 -16 -1 -17 13 -5 11 9 12 15 5 17
-9 3 -9 7 0 18 6 8 9 14 6 14 -3 0 -9 -6 -14 -12z"/>
<path d="M247 4823 c-10 -9 -9 -33 1 -33 4 0 8 9 8 20 0 23 0 22 -9 13z"/>
<path d="M291 4794 c0 -11 3 -14 6 -6 3 7 2 16 -1 19 -3 4 -6 -2 -5 -13z"/>
<path d="M307 4730 c12 -13 76 -22 68 -10 -3 5 -13 7 -23 5 -9 -1 -26 2 -37 8
-16 7 -18 7 -8 -3z"/>
<path d="M365 4680 c-3 -6 1 -7 9 -4 18 7 21 14 7 14 -6 0 -13 -4 -16 -10z"/>
<path d="M3000 4566 c0 -2 8 -10 18 -17 15 -13 16 -12 3 4 -13 16 -21 21 -21
13z"/>
<path d="M3076 4558 c3 -5 10 -6 15 -3 13 9 11 12 -6 12 -8 0 -12 -4 -9 -9z"/>
<path d="M2375 4540 c-3 -5 -1 -10 4 -10 6 0 11 5 11 10 0 6 -2 10 -4 10 -3 0
-8 -4 -11 -10z"/>
<path d="M2464 4538 c9 -5 23 -5 32 0 12 6 7 9 -16 9 -23 0 -28 -3 -16 -9z"/>
<path d="M2535 4539 c-4 -6 -5 -12 -2 -15 2 -3 7 2 10 11 7 17 1 20 -8 4z"/>
<path d="M2700 4532 c6 -12 15 -20 20 -17 4 3 11 0 13 -5 4 -7 5 -6 4 1 -2 6
-6 9 -9 7 -4 -2 -14 6 -23 17 -16 19 -16 19 -5 -3z"/>
<path d="M2785 4540 c-3 -6 1 -7 9 -4 18 7 21 14 7 14 -6 0 -13 -4 -16 -10z"/>
<path d="M3150 4540 c-12 -7 -10 -9 7 -7 12 0 19 5 17 9 -6 10 -6 10 -24 -2z"/>
<path d="M2335 4530 c-3 -5 -3 -15 1 -22 5 -8 2 -9 -9 -5 -9 3 -19 2 -21 -2
-3 -5 4 -8 16 -7 15 1 22 8 23 24 2 24 -1 27 -10 12z"/>
<path d="M3218 4528 c5 -5 16 -8 23 -6 8 3 3 7 -10 11 -17 4 -21 3 -13 -5z"/>
<path d="M2910 4520 c0 -6 7 -10 15 -10 8 0 15 2 15 4 0 2 -7 6 -15 10 -8 3
-15 1 -15 -4z"/>
<path d="M2396 4504 c-3 -9 -13 -14 -20 -11 -8 3 -20 -1 -27 -9 -7 -8 -19 -12
-28 -9 -8 3 -12 3 -9 -1 4 -4 3 -15 -2 -25 -7 -12 -6 -20 1 -25 14 -8 34 12
34 34 0 11 8 17 23 16 12 -1 22 3 22 9 0 6 7 2 16 -9 15 -19 15 -19 6 1 -5 11
-7 26 -5 33 7 18 -4 15 -11 -4z m-61 -65 c-4 -5 -12 -9 -18 -8 -9 0 -8 2 1 6
6 2 9 10 6 15 -4 7 -2 8 5 4 6 -4 9 -12 6 -17z"/>
<path d="M575 4480 c-3 -5 -1 -10 4 -10 6 0 11 5 11 10 0 6 -2 10 -4 10 -3 0
-8 -4 -11 -10z"/>
<path d="M2265 4480 c-3 -6 1 -7 9 -4 18 7 21 14 7 14 -6 0 -13 -4 -16 -10z"/>
<path d="M3470 4470 c6 -11 12 -20 14 -20 2 0 2 9 -1 20 -3 11 -9 20 -15 20
-5 0 -4 -9 2 -20z"/>
<path d="M605 4460 c-4 -6 -11 -8 -16 -5 -5 3 -6 -1 -3 -10 4 -9 7 -15 8 -13
1 2 8 11 15 21 7 9 11 17 8 17 -3 0 -9 -5 -12 -10z"/>
<path d="M2235 4461 c-3 -5 -2 -12 3 -15 5 -3 9 1 9 9 0 17 -3 19 -12 6z"/>
<path d="M2250 4420 c0 -5 5 -10 11 -10 5 0 7 5 4 10 -3 6 -8 10 -11 10 -2 0
-4 -4 -4 -10z"/>
<path d="M3546 4422 c-3 -5 1 -9 9 -9 8 0 12 4 9 9 -3 4 -7 8 -9 8 -2 0 -6 -4
-9 -8z"/>
<path d="M620 4406 c0 -2 7 -6 15 -10 8 -3 15 -1 15 4 0 6 -7 10 -15 10 -8 0
-15 -2 -15 -4z"/>
<path d="M685 4360 c-3 -6 1 -7 9 -4 18 7 21 14 7 14 -6 0 -13 -4 -16 -10z"/>
<path d="M2186 4362 c-2 -4 4 -8 14 -8 10 0 16 4 14 8 -3 4 -9 8 -14 8 -5 0
-11 -4 -14 -8z"/>
<path d="M3550 4339 c0 -5 5 -7 10 -4 6 3 10 8 10 11 0 2 -4 4 -10 4 -5 0 -10
-5 -10 -11z"/>
<path d="M2176 4317 c3 -10 9 -15 12 -12 3 3 0 11 -7 18 -10 9 -11 8 -5 -6z"/>
<path d="M3570 4320 c0 -5 5 -10 10 -10 6 0 10 5 10 10 0 6 -4 10 -10 10 -5 0
-10 -4 -10 -10z"/>
<path d="M710 4299 c0 -5 5 -7 10 -4 6 3 10 8 10 11 0 2 -4 4 -10 4 -5 0 -10
-5 -10 -11z"/>
<path d="M2194 4285 c-4 -15 -11 -22 -18 -18 -7 4 -6 1 1 -9 13 -15 8 -28 -9
-28 -5 0 -7 4 -3 9 3 5 2 12 -3 15 -4 2 -8 -4 -9 -14 -2 -22 23 -34 45 -20 11
6 12 9 4 10 -7 0 -10 5 -6 12 8 12 14 68 8 68 -2 0 -6 -11 -10 -25z"/>
<path d="M692 4276 c7 -8 15 -12 17 -11 5 6 -10 25 -20 25 -5 0 -4 -6 3 -14z"/>
<path d="M2235 4270 c3 -5 11 -10 16 -10 6 0 7 5 4 10 -3 6 -11 10 -16 10 -6
0 -7 -4 -4 -10z"/>
<path d="M3616 4267 c3 -10 9 -15 12 -12 3 3 0 11 -7 18 -10 9 -11 8 -5 -6z"/>
<path d="M681 4234 c9 -11 15 -12 28 -2 9 7 17 13 19 14 1 0 -12 1 -29 2 -25
1 -28 -2 -18 -14z"/>
<path d="M2050 4220 c0 -5 5 -10 11 -10 5 0 7 5 4 10 -3 6 -8 10 -11 10 -2 0
-4 -4 -4 -10z"/>
<path d="M2125 4211 c-3 -12 -11 -18 -17 -15 -7 5 -8 2 -3 -6 5 -8 3 -11 -6
-8 -8 3 -13 11 -11 17 3 16 -3 14 -19 -6 -8 -10 -9 -14 -2 -10 7 4 16 0 22
-10 6 -10 11 -14 11 -9 0 5 6 3 14 -3 12 -10 14 -9 11 6 -1 10 2 26 7 36 5 10
7 21 5 24 -3 2 -8 -5 -12 -16z"/>
<path d="M790 4210 c-9 -6 -10 -10 -3 -10 6 0 15 5 18 10 8 12 4 12 -15 0z"/>
<path d="M3754 4162 c1 -15 -2 -34 -6 -43 -5 -12 -3 -16 10 -15 12 1 16 -5 14
-19 -2 -14 3 -11 15 10 20 36 25 55 12 55 -8 0 -13 -15 -10 -32 1 -10 -13 -10
-22 -1 -4 3 -1 13 6 21 10 13 9 14 -2 7 -11 -6 -13 -3 -9 13 4 12 3 24 -1 27
-5 2 -7 -8 -7 -23z"/>
<path d="M2000 4171 c0 -7 -5 -9 -12 -5 -7 5 -8 3 -3 -5 5 -9 10 -10 18 -2 6
6 8 14 4 18 -4 3 -7 1 -7 -6z"/>
<path d="M895 4160 c-3 -5 -1 -10 4 -10 6 0 11 5 11 10 0 6 -2 10 -4 10 -3 0
-8 -4 -11 -10z"/>
<path d="M925 4140 c-4 -6 -11 -8 -16 -5 -5 3 -6 -1 -3 -10 4 -9 7 -15 8 -13
1 2 8 11 15 21 7 9 11 17 8 17 -3 0 -9 -5 -12 -10z"/>
<path d="M1915 4110 c-4 -6 -11 -7 -17 -4 -7 4 -8 2 -4 -5 6 -9 11 -9 22 0 14
11 18 19 10 19 -3 0 -8 -5 -11 -10z"/>
<path d="M3801 4094 c-11 -13 -11 -18 -1 -24 13 -8 54 10 45 19 -3 2 -11 -2
-20 -9 -18 -15 -20 1 -3 18 7 7 8 12 3 12 -6 -1 -16 -8 -24 -16z"/>
<path d="M1950 4088 c0 -9 7 -19 16 -22 15 -6 15 -4 3 11 -7 10 -15 20 -16 22
-2 2 -3 -3 -3 -11z"/>
<path d="M948 4083 c7 -3 16 -2 19 1 4 3 -2 6 -13 5 -11 0 -14 -3 -6 -6z"/>
<path d="M1870 4066 c0 -2 7 -7 16 -10 8 -3 12 -2 9 4 -6 10 -25 14 -25 6z"/>
<path d="M991 4038 c-1 -22 18 -33 32 -19 9 9 8 11 -5 6 -11 -4 -18 0 -21 12
-4 15 -5 16 -6 1z"/>
<path d="M3874 4034 c1 -8 4 -15 7 -16 2 -2 3 -1 2 1 -2 2 2 9 7 16 7 8 5 12
-4 12 -8 0 -13 -6 -12 -13z"/>
<path d="M1870 4019 c0 -5 5 -7 10 -4 6 3 10 8 10 11 0 2 -4 4 -10 4 -5 0 -10
-5 -10 -11z"/>
<path d="M3895 3979 c-3 -4 2 -6 10 -5 21 3 28 13 10 13 -9 0 -18 -4 -20 -8z"/>
<path d="M1846 3962 c-3 -5 1 -9 9 -9 8 0 12 4 9 9 -3 4 -7 8 -9 8 -2 0 -6 -4
-9 -8z"/>
<path d="M3908 3953 c7 -3 16 -2 19 1 4 3 -2 6 -13 5 -11 0 -14 -3 -6 -6z"/>
<path d="M3888 3928 c3 -13 7 -17 10 -10 2 7 8 10 13 6 5 -3 9 -3 9 0 0 3 -9
10 -19 15 -17 9 -18 8 -13 -11z"/>
<path d="M1795 3931 c-3 -5 -2 -12 3 -15 5 -3 9 1 9 9 0 17 -3 19 -12 6z"/>
<path d="M1066 3921 c-3 -5 1 -11 9 -14 9 -4 12 -1 8 9 -6 16 -10 17 -17 5z"/>
<path d="M3995 3910 c-4 -6 -11 -7 -17 -4 -7 4 -8 2 -4 -5 6 -9 11 -9 22 0 14
11 18 19 10 19 -3 0 -8 -5 -11 -10z"/>
<path d="M1774 3895 c-3 -8 -4 -20 -2 -27 3 -7 7 -1 10 15 6 29 1 36 -8 12z"/>
<path d="M1177 3875 c-4 -8 -3 -16 1 -19 4 -3 9 4 9 15 2 23 -3 25 -10 4z"/>
<path d="M4036 3882 c-3 -5 1 -9 9 -9 8 0 12 4 9 9 -3 4 -7 8 -9 8 -2 0 -6 -4
-9 -8z"/>
<path d="M1670 3840 c0 -5 5 -10 11 -10 5 0 7 5 4 10 -3 6 -8 10 -11 10 -2 0
-4 -4 -4 -10z"/>
<path d="M1816 3841 c-3 -5 1 -11 9 -14 9 -4 12 -1 8 9 -6 16 -10 17 -17 5z"/>
<path d="M3930 3842 c0 -4 9 -13 19 -19 17 -11 20 -10 18 5 -1 17 -37 30 -37
14z"/>
<path d="M4110 3836 c0 -8 4 -17 9 -20 5 -4 7 3 4 14 -6 23 -13 26 -13 6z"/>
<path d="M1616 3818 c3 -5 10 -6 15 -3 13 9 11 12 -6 12 -8 0 -12 -4 -9 -9z"/>
<path d="M4142 3800 c0 -14 2 -19 5 -12 2 6 2 18 0 25 -3 6 -5 1 -5 -13z"/>
<path d="M1241 3794 c0 -11 3 -14 6 -6 3 7 2 16 -1 19 -3 4 -6 -2 -5 -13z"/>
<path d="M1199 3797 c0 -1 -2 -10 -4 -20 -3 -15 -1 -16 11 -6 12 10 13 9 9 -4
-4 -8 -2 -18 4 -22 6 -3 11 -1 11 5 0 6 4 9 8 6 4 -2 14 0 22 6 12 8 12 9 -3
4 -10 -3 -20 0 -23 8 -5 12 -32 30 -35 23z"/>
<path d="M1627 3769 c4 -13 8 -18 11 -10 2 7 -1 18 -6 23 -8 8 -9 4 -5 -13z"/>
<path d="M1610 3743 c0 -7 5 -13 10 -13 6 0 10 -5 10 -11 0 -6 -7 -9 -15 -6
-20 8 -28 -9 -16 -30 6 -11 11 -13 11 -5 0 7 4 11 9 8 5 -3 14 0 20 8 9 10 7
19 -9 37 -10 13 -19 18 -20 12z"/>
<path d="M4216 3693 c-6 -14 -5 -15 5 -6 7 7 10 15 7 18 -3 3 -9 -2 -12 -12z"/>
<path d="M1561 3674 c0 -11 3 -14 6 -6 3 7 2 16 -1 19 -3 4 -6 -2 -5 -13z"/>
<path d="M4215 3660 c3 -5 8 -10 11 -10 2 0 4 5 4 10 0 6 -5 10 -11 10 -5 0
-7 -4 -4 -10z"/>
<path d="M1487 3619 c7 -7 15 -10 18 -7 3 3 -2 9 -12 12 -14 6 -15 5 -6 -5z"/>
<path d="M1325 3600 c3 -5 0 -10 -8 -10 -29 0 -11 -56 20 -62 5 -1 16 -11 25
-22 10 -12 17 -16 18 -9 0 16 -30 44 -41 38 -5 -4 -9 -1 -9 4 0 6 5 11 11 11
5 0 8 4 4 9 -3 6 3 15 12 21 16 10 15 10 -4 5 -18 -5 -22 -3 -17 9 3 9 1 16
-6 16 -6 0 -8 -4 -5 -10z m5 -36 c0 -8 -5 -12 -10 -9 -6 4 -8 11 -5 16 9 14
15 11 15 -7z"/>
<path d="M4230 3500 c0 -5 5 -10 11 -10 5 0 7 5 4 10 -3 6 -8 10 -11 10 -2 0
-4 -4 -4 -10z"/>
<path d="M4211 3484 c0 -11 3 -14 6 -6 3 7 2 16 -1 19 -3 4 -6 -2 -5 -13z"/>
<path d="M4215 3420 c-3 -5 -1 -10 4 -10 6 0 11 5 11 10 0 6 -2 10 -4 10 -3 0
-8 -4 -11 -10z"/>
<path d="M4193 3364 c-8 -21 9 -36 27 -23 12 9 12 10 -4 5 -15 -5 -17 -2 -13
14 6 24 -1 27 -10 4z"/>
<path d="M4206 3243 c-6 -14 -5 -15 5 -6 7 7 10 15 7 18 -3 3 -9 -2 -12 -12z"/>
<path d="M4194 3209 c-3 -6 -2 -15 3 -20 5 -5 9 -1 9 11 0 23 -2 24 -12 9z"/>
<path d="M4147 3149 c7 -7 15 -10 18 -7 3 3 -2 9 -12 12 -14 6 -15 5 -6 -5z"/>
<path d="M4210 3100 c0 -5 5 -10 11 -10 5 0 7 5 4 10 -3 6 -8 10 -11 10 -2 0
-4 -4 -4 -10z"/>
<path d="M4217 3035 c-4 -8 -3 -16 1 -19 4 -3 9 4 9 15 2 23 -3 25 -10 4z"/>
<path d="M4310 2940 c0 -5 5 -10 11 -10 5 0 7 5 4 10 -3 6 -8 10 -11 10 -2 0
-4 -4 -4 -10z"/>
<path d="M4322 2901 c6 -11 15 -18 19 -15 4 2 10 -2 12 -8 4 -8 6 -9 6 -2 1 7
-10 19 -24 28 -25 16 -25 16 -13 -3z"/>
<path d="M4470 2840 c0 -5 5 -10 11 -10 5 0 7 5 4 10 -3 6 -8 10 -11 10 -2 0
-4 -4 -4 -10z"/>
<path d="M4450 2761 c0 -6 4 -12 8 -15 5 -3 9 1 9 9 0 8 -4 15 -9 15 -4 0 -8
-4 -8 -9z"/>
<path d="M4536 2713 c-6 -14 -5 -15 5 -6 7 7 10 15 7 18 -3 3 -9 -2 -12 -12z"/>
<path d="M4506 2694 c-3 -8 -2 -12 4 -9 6 3 10 -1 10 -9 0 -8 4 -17 10 -21 5
-3 5 7 -1 25 -12 34 -15 36 -23 14z"/>
<path d="M4473 2676 c14 -10 15 -15 5 -19 -9 -4 -7 -6 4 -6 29 -2 29 15 0 28
-24 10 -25 10 -9 -3z"/>
<path d="M4390 2600 c0 -5 5 -10 11 -10 5 0 7 5 4 10 -3 6 -8 10 -11 10 -2 0
-4 -4 -4 -10z"/>
<path d="M4460 2586 c0 -2 7 -6 15 -10 8 -3 15 -1 15 4 0 6 -7 10 -15 10 -8 0
-15 -2 -15 -4z"/>
<path d="M4273 2541 c0 -11 5 -17 11 -14 5 4 7 -1 3 -10 -9 -23 8 -30 24 -10
10 12 10 14 2 9 -8 -4 -13 -2 -13 7 0 8 -6 20 -14 27 -12 9 -15 8 -13 -9z"/>
<path d="M4273 2445 c0 -8 4 -12 9 -9 5 3 6 10 3 15 -9 13 -12 11 -12 -6z"/>
<path d="M4165 2441 c-2 -5 8 -19 23 -32 25 -22 25 -22 8 -1 -16 19 -17 22 -3
22 9 0 19 -9 22 -21 4 -11 9 -18 12 -16 2 3 0 14 -6 25 -11 21 -48 35 -56 23z"/>
<path d="M4106 2243 c-6 -14 -5 -15 5 -6 7 7 10 15 7 18 -3 3 -9 -2 -12 -12z"/>
<path d="M3621 2236 c-10 -12 -8 -13 8 -9 12 3 21 9 21 14 0 14 -16 11 -29 -5z"/>
<path d="M4089 2203 c-13 -16 -12 -17 4 -4 9 7 17 15 17 17 0 8 -8 3 -21 -13z"/>
<path d="M4035 2200 c-3 -5 -1 -10 4 -10 6 0 11 5 11 10 0 6 -2 10 -4 10 -3 0
-8 -4 -11 -10z"/>
<path d="M3567 2181 c-36 -46 -56 -81 -48 -86 5 -3 12 -1 16 4 3 6 13 7 23 4
13 -4 13 -2 -3 10 -16 13 -17 16 -4 17 8 0 21 -6 29 -12 12 -11 12 -10 2 3
-14 19 -5 52 12 42 6 -3 8 -3 4 2 -4 4 -3 13 2 20 7 8 5 12 -5 12 -8 0 -21 -7
-28 -16z m7 -16 c-9 -14 -18 -25 -21 -25 -5 0 5 18 20 38 17 22 18 13 1 -13z"/>
<path d="M3867 2187 c-3 -7 3 -13 14 -13 13 0 15 3 7 13 -6 7 -12 13 -13 13
-2 0 -5 -6 -8 -13z"/>
<path d="M3631 2167 c-13 -21 -12 -21 5 -5 10 10 16 20 13 22 -3 3 -11 -5 -18
-17z"/>
<path d="M3795 2171 c-3 -5 -2 -12 3 -15 5 -3 9 1 9 9 0 17 -3 19 -12 6z"/>
<path d="M3590 2140 c0 -5 5 -10 10 -10 6 0 10 5 10 10 0 6 -4 10 -10 10 -5 0
-10 -4 -10 -10z"/>
<path d="M3572 2091 c-8 -4 -26 -7 -40 -5 -24 3 -27 -1 -28 -26 -1 -26 1 -28
17 -19 15 7 21 6 25 -5 3 -8 12 -17 20 -20 11 -4 10 0 -3 19 -10 13 -23 23
-30 20 -7 -2 -15 0 -18 5 -6 9 14 14 41 11 6 -1 17 6 24 14 14 17 11 19 -8 6z"/>
<path d="M3550 1939 c0 -5 5 -7 10 -4 6 3 10 8 10 11 0 2 -4 4 -10 4 -5 0 -10
-5 -10 -11z"/>
<path d="M3485 1911 c-3 -5 -2 -12 3 -15 5 -3 9 1 9 9 0 17 -3 19 -12 6z"/>
<path d="M3553 1905 c0 -8 4 -12 9 -9 5 3 6 10 3 15 -9 13 -12 11 -12 -6z"/>
<path d="M3556 1841 c-3 -5 2 -15 12 -22 15 -12 16 -12 5 2 -7 9 -10 19 -6 22
3 4 4 7 0 7 -3 0 -8 -4 -11 -9z"/>
<path d="M3513 1787 c13 -11 15 -16 5 -19 -11 -4 -11 -8 0 -20 10 -13 10 -17
0 -21 -10 -4 -10 -8 2 -16 8 -5 18 -7 23 -4 5 3 6 -5 2 -18 -4 -16 -3 -20 3
-11 7 11 11 10 17 -5 8 -18 11 -28 13 -51 1 -7 7 -10 12 -7 6 4 17 1 25 -5 8
-7 15 -9 15 -5 0 4 6 2 14 -4 11 -9 15 -8 20 5 4 10 1 21 -5 25 -7 4 -9 13 -6
21 3 8 -1 15 -8 15 -7 0 -11 -7 -8 -16 3 -12 1 -11 -11 3 -8 10 -12 24 -9 30
4 6 -1 5 -10 -3 -14 -11 -17 -11 -17 0 0 11 -2 11 -10 -1 -8 -13 -10 -12 -11
5 -1 11 -1 24 0 28 1 5 -3 6 -9 2 -5 -3 -10 -1 -10 4 0 6 8 11 18 11 14 0 15
2 2 10 -10 6 -16 6 -18 0 -2 -6 -8 -7 -14 -4 -7 4 -1 15 13 26 13 11 19 17 12
13 -7 -3 -25 2 -40 11 -20 11 -23 12 -10 1z m121 -150 c23 -22 25 -27 10 -24
-29 4 -57 23 -60 39 -3 22 18 16 50 -15z"/>
<path d="M3591 1647 c2 -1 13 -9 24 -17 19 -14 19 -14 6 3 -7 9 -18 17 -24 17
-6 0 -8 -1 -6 -3z"/>
<path d="M3588 1703 c7 -3 16 -2 19 1 4 3 -2 6 -13 5 -11 0 -14 -3 -6 -6z"/>
<path d="M3673 1655 c0 -8 4 -12 9 -9 5 3 6 10 3 15 -9 13 -12 11 -12 -6z"/>
<path d="M3781 1594 c0 -11 3 -14 6 -6 3 7 2 16 -1 19 -3 4 -6 -2 -5 -13z"/>
<path d="M3815 1580 c3 -5 8 -10 11 -10 2 0 4 5 4 10 0 6 -5 10 -11 10 -5 0
-7 -4 -4 -10z"/>
<path d="M3893 1475 c0 -8 4 -12 9 -9 5 3 6 10 3 15 -9 13 -12 11 -12 -6z"/>
<path d="M3874 1249 c-3 -6 -2 -15 3 -20 5 -5 9 -1 9 11 0 23 -2 24 -12 9z"/>
<path d="M3865 1180 c-3 -5 -2 -17 3 -26 8 -15 10 -15 15 0 5 12 3 15 -5 10
-8 -5 -9 -2 -5 9 7 19 2 23 -8 7z"/>
<path d="M3955 1051 c-3 -5 -2 -12 3 -15 5 -3 9 1 9 9 0 17 -3 19 -12 6z"/>
<path d="M3909 1028 c0 -2 -2 -13 -3 -26 -3 -23 25 -48 38 -35 3 3 6 1 6 -5 0
-7 4 -12 8 -12 4 0 8 11 8 24 0 14 -3 23 -7 20 -4 -2 -10 0 -14 6 -4 6 -11 8
-16 5 -5 -3 -6 1 -3 9 3 9 1 16 -5 16 -6 0 -11 -1 -12 -2z m40 -42 c10 -12 9
-14 -6 -11 -10 2 -22 4 -28 4 -5 1 -3 6 5 11 19 12 15 12 29 -4z"/>
<path d="M3948 1018 c5 -5 16 -8 23 -6 8 3 3 7 -10 11 -17 4 -21 3 -13 -5z"/>
<path d="M4055 1021 c-3 -5 -2 -12 3 -15 5 -3 9 1 9 9 0 17 -3 19 -12 6z"/>
<path d="M4273 1014 c0 -9 4 -11 12 -4 7 5 14 9 16 7 2 -1 3 0 1 2 -7 11 -29
7 -29 -5z"/>
<path d="M4085 999 c-3 -4 2 -6 10 -5 21 3 28 13 10 13 -9 0 -18 -4 -20 -8z"/>
<path d="M4506 885 c-11 -8 -15 -15 -9 -15 6 0 16 7 23 15 16 19 11 19 -14 0z"/>
<path d="M4546 756 c3 -9 13 -16 22 -16 8 0 13 1 11 3 -2 1 -12 9 -22 16 -15
12 -17 12 -11 -3z"/>
<path d="M4593 717 c-2 -15 0 -18 6 -8 6 9 11 10 15 2 4 -6 0 -14 -8 -17 -18
-7 -15 -46 3 -52 10 -3 10 0 2 15 -7 14 -7 23 1 31 7 7 13 19 14 28 1 9 0 13
-3 10 -4 -3 -11 -2 -17 4 -8 6 -12 2 -13 -13z"/>
<path d="M744 640 c0 -13 4 -16 12 -10 6 6 14 7 17 3 4 -3 7 -3 7 0 0 3 -8 11
-18 16 -14 7 -18 6 -18 -9z"/>
<path d="M1243 644 c-4 -12 -7 -13 -14 -3 -4 8 -11 10 -16 5 -4 -4 -1 -11 7
-16 22 -12 35 -11 35 3 1 6 7 11 14 9 7 -1 10 2 6 8 -9 15 -25 12 -32 -6z"/>
<path d="M830 600 c-13 -8 -12 -10 3 -10 9 0 17 5 17 10 0 12 -1 12 -20 0z"/>
<path d="M914 595 c3 -23 12 -26 13 -5 1 11 -2 20 -7 20 -4 0 -7 -7 -6 -15z"/>
<path d="M1659 608 c-6 -21 -5 -37 2 -32 5 3 6 10 3 16 -5 7 0 9 14 6 12 -4
20 -2 16 3 -4 8 -33 13 -35 7z"/>
<path d="M1191 593 c-1 -17 16 -25 25 -12 4 7 3 9 -4 5 -5 -3 -13 0 -15 6 -4
9 -6 10 -6 1z"/>
<path d="M1350 590 c-13 -8 -12 -10 3 -10 9 0 17 5 17 10 0 12 -1 12 -20 0z"/>
<path d="M4842 584 c10 -10 20 -16 22 -13 3 3 -5 11 -17 18 -21 13 -21 12 -5
-5z"/>
<path d="M1550 580 c0 -5 7 -7 15 -4 8 4 15 8 15 10 0 2 -7 4 -15 4 -8 0 -15
-4 -15 -10z"/>
<path d="M1753 575 c0 -8 4 -12 9 -9 4 3 8 9 8 15 0 5 -4 9 -8 9 -5 0 -9 -7
-9 -15z"/>
<path d="M1290 576 c0 -2 8 -10 18 -17 15 -13 16 -12 3 4 -13 16 -21 21 -21
13z"/>
<path d="M1854 568 c-4 -7 -3 -8 4 -4 7 4 12 2 12 -5 0 -7 3 -9 7 -6 3 4 11
-1 18 -9 10 -15 12 -15 12 -1 0 20 -44 41 -53 25z"/>
<path d="M786 558 c3 -4 9 -8 15 -8 5 0 9 4 9 8 0 5 -7 9 -15 9 -8 0 -12 -4
-9 -9z"/>
<path d="M636 513 c-4 -9 -3 -20 1 -24 4 -4 9 3 9 17 2 28 -1 31 -10 7z"/>
<path d="M1853 495 c0 -8 4 -12 9 -9 5 3 6 10 3 15 -9 13 -12 11 -12 -6z"/>
<path d="M1880 478 c0 -12 -5 -16 -17 -11 -10 3 -15 3 -11 -1 3 -4 14 -9 25
-11 10 -1 17 -8 16 -14 -2 -6 2 -11 7 -11 13 0 13 2 -5 36 -10 19 -15 23 -15
12z"/>
<path d="M4850 480 c0 -5 5 -10 11 -10 5 0 7 5 4 10 -3 6 -8 10 -11 10 -2 0
-4 -4 -4 -10z"/>
<path d="M4856 433 c-6 -14 -5 -15 5 -6 7 7 10 15 7 18 -3 3 -9 -2 -12 -12z"/>
<path d="M4690 349 c4 -23 0 -39 -7 -38 -5 1 -11 0 -15 -1 -5 -1 -13 -3 -20
-4 -6 0 -13 -7 -16 -15 -3 -9 0 -12 10 -8 9 3 21 0 27 -6 8 -8 14 -8 24 2 10
10 8 11 -8 5 -18 -7 -19 -6 -6 9 13 16 15 16 35 -5 12 -12 20 -27 18 -33 -2
-5 0 -6 4 -2 4 4 9 15 10 23 1 9 0 13 -3 11 -9 -10 -30 17 -26 33 3 9 -3 23
-12 30 -14 12 -16 12 -15 -1z"/>
<path d="M590 343 c0 -5 5 -15 10 -23 7 -12 9 -10 7 8 -1 19 -17 33 -17 15z"/>
<path d="M4835 340 c-3 -5 -1 -10 4 -10 6 0 11 5 11 10 0 6 -2 10 -4 10 -3 0
-8 -4 -11 -10z"/>
<path d="M485 331 c-3 -6 -3 -15 0 -21 8 -13 -19 -52 -30 -42 -5 4 -5 1 0 -7
7 -12 10 -11 20 2 7 9 15 13 19 9 4 -4 6 -2 4 3 -1 6 2 11 7 12 6 0 9 -2 8 -6
-1 -4 7 -7 17 -7 18 0 21 19 5 33 -4 4 -5 2 0 -6 5 -9 3 -12 -6 -9 -8 3 -14
13 -14 23 0 21 -20 31 -30 16z m25 -11 c0 -5 -5 -10 -11 -10 -5 0 -7 5 -4 10
3 6 8 10 11 10 2 0 4 -4 4 -10z"/>
<path d="M1983 322 c9 -10 14 -21 11 -24 -3 -3 -1 -9 4 -12 6 -3 9 2 7 11 -2
10 -4 21 -4 24 -1 4 -9 10 -18 13 -16 6 -16 6 0 -12z"/>
<path d="M4734 329 c-8 -14 11 -33 25 -25 6 4 11 11 11 16 0 13 -29 20 -36 9z
m21 -9 c3 -5 1 -10 -4 -10 -6 0 -11 5 -11 10 0 6 2 10 4 10 3 0 8 -4 11 -10z"/>
<path d="M2113 323 c4 -3 0 -17 -9 -31 -10 -15 -11 -21 -3 -17 8 6 11 4 7 -6
-4 -10 1 -15 13 -16 17 -2 17 0 5 13 -9 8 -12 22 -8 32 6 15 7 15 10 -3 2 -11
11 -24 19 -28 12 -7 12 -11 1 -25 -11 -15 -11 -15 3 -4 14 10 18 10 23 -3 3
-10 -1 -15 -12 -16 -11 0 -12 -2 -4 -6 7 -3 19 0 26 7 9 7 16 7 20 1 3 -5 1
-12 -4 -14 -6 -3 -5 -4 1 -3 7 1 13 13 15 27 1 13 0 18 -3 11 -5 -14 -50 36
-45 51 1 5 -2 6 -8 2 -6 -3 -7 -12 -4 -18 4 -7 3 -8 -2 -4 -5 5 -9 12 -10 15
-2 19 -17 42 -27 42 -6 0 -7 -3 -4 -7z m76 -87 c-3 -3 -11 5 -18 17 -13 21
-12 21 5 5 10 -10 16 -20 13 -22z"/>
<path d="M4461 316 c-8 -10 -9 -16 -1 -21 6 -3 8 -10 6 -14 -3 -3 4 -7 14 -7
11 0 16 6 13 16 -4 11 -1 11 10 -2 8 -10 18 -18 22 -18 4 0 2 6 -4 14 -10 12
-8 14 15 12 15 -2 33 -11 39 -20 12 -15 13 -15 20 1 7 17 8 17 15 -2 8 -17 8
-16 7 7 -1 15 -4 25 -8 22 -4 -2 -10 0 -14 6 -4 6 -11 8 -16 5 -5 -4 -9 -1 -9
6 0 9 -5 8 -17 -2 -22 -17 -45 -18 -65 -1 -12 10 -18 9 -27 -2z m23 -17 c-3
-5 -10 -7 -15 -3 -5 3 -7 10 -3 15 3 5 10 7 15 3 5 -3 7 -10 3 -15z m106 -7
c0 -12 -3 -12 -15 -2 -8 7 -15 13 -15 15 0 1 7 2 15 2 8 0 15 -7 15 -15z"/>
<path d="M4776 302 c-3 -5 1 -9 9 -9 8 0 12 4 9 9 -3 4 -7 8 -9 8 -2 0 -6 -4
-9 -8z"/>
<path d="M2038 293 c7 -3 16 -2 19 1 4 3 -2 6 -13 5 -11 0 -14 -3 -6 -6z"/>
<path d="M2035 269 c-4 -6 -5 -12 -2 -15 2 -3 7 2 10 11 7 17 1 20 -8 4z"/>
<path d="M4552 266 c7 -8 15 -12 17 -11 5 6 -10 25 -20 25 -5 0 -4 -6 3 -14z"/>
<path d="M493 245 c0 -8 4 -12 9 -9 5 3 6 10 3 15 -9 13 -12 11 -12 -6z"/>
<path d="M340 235 c17 -20 30 -19 30 3 0 14 -2 15 -10 2 -6 -10 -10 -11 -10
-2 0 6 -5 12 -11 12 -8 0 -8 -5 1 -15z"/>
<path d="M430 241 c0 -6 4 -12 8 -15 5 -3 9 1 9 9 0 8 -4 15 -9 15 -4 0 -8 -4
-8 -9z"/>
<path d="M396 225 c-11 -8 -14 -15 -7 -15 7 0 9 -5 5 -12 -5 -7 -3 -8 5 -4 7
5 10 11 7 14 -3 3 -1 11 5 19 15 17 9 16 -15 -2z"/>
<path d="M2216 193 c-12 -12 -6 -25 9 -20 8 4 17 1 21 -5 4 -6 3 -8 -4 -4 -5
3 -12 0 -15 -6 -3 -10 -8 -10 -21 1 -15 12 -17 12 -14 0 2 -8 -3 -13 -10 -11
-8 1 -11 -2 -7 -8 5 -8 11 -8 20 0 9 8 14 8 17 0 2 -6 19 3 38 20 19 17 28 29
20 27 -8 -2 -22 -1 -31 4 -9 5 -19 5 -23 2z"/>
<path d="M370 166 c0 -2 7 -7 16 -10 8 -3 12 -2 9 4 -6 10 -25 14 -25 6z"/>
<path d="M4235 140 c3 -5 8 -10 11 -10 2 0 4 5 4 10 0 6 -5 10 -11 10 -5 0 -7
-4 -4 -10z"/>
<path d="M2200 35 c-11 -13 -10 -14 4 -9 9 3 16 10 16 15 0 13 -6 11 -20 -6z"/>
</g>
</svg>
